/* XPM */
static char * collectible1_xpm[] = {
"80 80 19 1",
" 	c None",
".	c #D6DA6C",
"+	c #E2E413",
"@	c #D6DA6B",
"#	c #DEE046",
"$	c #DFE13E",
"%	c #D6DA6A",
"&	c #DEE043",
"*	c #D7DB66",
"=	c #E0E237",
"-	c #D8DB63",
";	c #DFE13C",
">	c #D8DB62",
",	c #DFE139",
"'	c #D8DB64",
")	c #E0E235",
"!	c #E0E234",
"~	c #D7DA68",
"{	c #D7DA6A",
"                                                                                ",
"                                         .                                      ",
"                                        ...                                     ",
"                                         .                                      ",
"                                                                                ",
"                                       ..                                       ",
"                                      ....                                      ",
"                                      .....                                     ",
"                                       ....                                     ",
"                                         .             ++                       ",
"                        ++                            ++++                      ",
"                       ++++             .             ++++                      ",
"                       ++++            ...            ++++                      ",
"                       +++              .           ++++++                      ",
"                       ++                           +++++                       ",
"                  .   +++               ..           ++++                       ",
"                 ...  ++++++++         ....        ++++++                       ",
"                 .... ++++++++   +++    ..         +++++++                      ",
"                 ...  +++++++++++++++   ...        +++++++                      ",
"                 ..   ++++++  +++++++    ...      ++++++++        ...           ",
"                  .   ++++++++++++++++   @..#++   ++++++++       .....          ",
"            ..   ..    +++ ++++++++++++  @..$++    +++++++       .....          ",
"            ... ...    +++++++++++++++++  %&+++++ ++++++++       ....           ",
"            ... ...    +++++++++++++++ ++  ++++++ +++++++         ..            ",
"            ..  ...    +++++++++++++++*.=++++++++++++++++         ..            ",
"                 ...   ++++++++++++++-...;++++++++++++++         ....           ",
"           .     ...   +++++++++++++++>.,+')++++  +++++         ....            ",
"          ...    ..  .@++++++++++++++++++-..!+++  +++++    .    ....            ",
"          ...       ...~+++++++++++++++++>..!++++ ++++++  ...    ....           ",
"          ..         .. ++++++++++++++++++-)+++++ ++++++ {..     .....          ",
"                        ++++++ ++++++++++++++++++ +++++++%..     ....           ",
"                         ++++   +++++++++++++++++ +++++++ .       ..            ",
"                         +++    +++++++++++++++++ +++++++                       ",
"                          +     ++++++++++++++++  ++++++                        ",
"                               +++++++++++++++++++++++++                        ",
"                               +++++++++++++++++++++++++   .                    ",
"             ..                +++++++++++++++++++++++++  ...                   ",
"             ...     .         ++++++++++++++++++++++++   ...                   ",
"             ..     ...        ++++++++++++++++++++++++  @..                    ",
"                     .         ++++++++++++++++++++++     .                     ",
"                               ++++++++++++++++++++                             ",
"          .                     +++++++++++++++++++                             ",
"         ...                    +++++++++++++++++++      .                      ",
"         ...                     +++++++++++++++++++    ...                     ",
"          .                      +++++++++++++++++++    ...                     ",
"                                 ++++++++++++++++++      ....                   ",
"                                 ++++++++++++++++++       ....                  ",
"                                ++++++++++++++++++         ..   ..              ",
"                                ++++++++++++++++++             ....             ",
"                                 +++++++++++++++++             ...              ",
"                                   ++++++++++++++++             .               ",
"                    .              +++++++++++++++++                            ",
"                   ...              ++++++++++++++++                            ",
"                   ...              ++++++++++++++++             .              ",
"                    .        .     +++++++++++++++++            ...             ",
"                            ...     ++++++++++++++++             .              ",
"                           .....     +++++++++++++++                            ",
"                           ....      ++++++++++++++++  ..                       ",
"                            ..      +++++++++++++++++ ....       .              ",
"                            ..      ++++++++++++++++  ...       ...             ",
"                            ..      ++++++++++++++     .        ...             ",
"                           ...      ++++++++++++                 .              ",
"                          ....      +++++++++++++                               ",
"                           ...      +++++++++++++       .                       ",
"                           ....      ++++++++++++      ...                      ",
"                           ....      +++++++++++        .                       ",
"                            ..      ++++++++ +                                  ",
"                                    +++++++                                     ",
"                                      ++++              .                       ",
"                                     +++++             ...                      ",
"                                     +++++             ...                      ",
"                                     ++++               .                       ",
"                                     +++                                        ",
"                                                                                ",
"                                                                                ",
"                                                                                ",
"                                                                                ",
"                                                                                ",
"                                                                                ",
"                                                                                "};
