/* XPM */
static char * collectible1_xpm_xpm[] = {
"32 32 2 1",
" 	c None",
".	c #FF260E",
"                                ",
"                                ",
"                                ",
"                                ",
"                                ",
"                                ",
"                                ",
"                       ...      ",
"                       ...      ",
"                       ....     ",
"                       .....    ",
"                       .....    ",
"                       ......   ",
"                      .......   ",
"                      .......   ",
"                      .......   ",
"                     ........   ",
"    .               .........   ",
"    ...            ..........   ",
"    ....         ............   ",
"    .........................   ",
"     .......................    ",
"     .......................    ",
"      .....................     ",
"      ....................      ",
"        .................       ",
"         ...............        ",
"           ...........          ",
"                                ",
"                                ",
"                                ",
"                                "};
