/* XPM */
static char * exit_xpm[] = {
"32 32 779 2",
"  	c None",
". 	c #C1B9B2",
"+ 	c #C0BAB3",
"@ 	c #B5BFBE",
"# 	c #B9BEBC",
"$ 	c #BFBAB5",
"% 	c #C6B9AD",
"& 	c #C5BBAE",
"* 	c #C6BAAD",
"= 	c #C5BAAD",
"- 	c #C7B8AC",
"; 	c #C5B9AF",
"> 	c #BDBEB7",
", 	c #BBBFBA",
"' 	c #BBBEBA",
") 	c #B6C0BE",
"! 	c #B1C2C2",
"~ 	c #B9BEBA",
"{ 	c #BEBEB7",
"] 	c #C3BDB1",
"^ 	c #C4BDAF",
"/ 	c #CBBBA6",
"( 	c #C5C0AD",
"_ 	c #C5C1AD",
": 	c #C6C0AC",
"< 	c #C9BEA9",
"[ 	c #C8BEA9",
"} 	c #C8BCAA",
"| 	c #C5BEAF",
"1 	c #BFC0B5",
"2 	c #BDC0B6",
"3 	c #BBC0B9",
"4 	c #B8C1BD",
"5 	c #B6C0BD",
"6 	c #ADC4C6",
"7 	c #BCBEB7",
"8 	c #BDC1B8",
"9 	c #BDC2B7",
"0 	c #C1C2B2",
"a 	c #C5C2AD",
"b 	c #C9C2A8",
"c 	c #CAC5A6",
"d 	c #C8C7AA",
"e 	c #C7C9AC",
"f 	c #C8C8AA",
"g 	c #CCC4A6",
"h 	c #C8C3A9",
"i 	c #C5C4AF",
"j 	c #C1C3B2",
"k 	c #BFC3B4",
"l 	c #BDC3B8",
"m 	c #BAC4BB",
"n 	c #BAC0BA",
"o 	c #BCBEB8",
"p 	c #B4C0BF",
"q 	c #B3C2C1",
"r 	c #B8C0BC",
"s 	c #C0BCB3",
"t 	c #C1BFB2",
"u 	c #BEC4B6",
"v 	c #BCC8B8",
"w 	c #BFCAB4",
"x 	c #C5CCAD",
"y 	c #C8CEAB",
"z 	c #CCD1A7",
"A 	c #CBD2A7",
"B 	c #C9D3AA",
"C 	c #CBD3A7",
"D 	c #CCD3A5",
"E 	c #C8D1AB",
"F 	c #C5CEAF",
"G 	c #C3CBB0",
"H 	c #C1C8B3",
"I 	c #BDC8B7",
"J 	c #BCC6B7",
"K 	c #BDC2B6",
"L 	c #BEBFB6",
"M 	c #BAC0BB",
"N 	c #B6C4BE",
"O 	c #C3C3B1",
"P 	c #C0C9B4",
"Q 	c #BDCFB7",
"R 	c #BED4B6",
"S 	c #C1D8B3",
"T 	c #C5D9AF",
"U 	c #CCDAA7",
"V 	c #CEDAA4",
"W 	c #CCDBA7",
"X 	c #CCDDA6",
"Y 	c #CFDEA4",
"Z 	c #CEDFA6",
"` 	c #CADDA9",
" .	c #C5DAB0",
"..	c #C2D4B1",
"+.	c #C1D0B4",
"@.	c #BECEB6",
"#.	c #C0CAB4",
"$.	c #BFC6B4",
"%.	c #C2C0B1",
"&.	c #C3BBB0",
"*.	c #BAC4BA",
"=.	c #B7CABD",
"-.	c #C1CAB3",
";.	c #BED7B7",
">.	c #BCDCB8",
",.	c #C1E0B5",
"'.	c #C7E1AD",
").	c #CEE1A5",
"!.	c #D1E1A1",
"~.	c #CEE2A4",
"{.	c #D0E6A2",
"].	c #D2E7A1",
"^.	c #D0E7A7",
"/.	c #CAE6AC",
"(.	c #C7E2AE",
"_.	c #C4DEB1",
":.	c #C0D8B4",
"<.	c #C1D4B3",
"[.	c #C2D0B2",
"}.	c #C2CAB1",
"|.	c #C7C4AC",
"1.	c #C1C5B3",
"2.	c #B9CFBC",
"3.	c #B8D4BD",
"4.	c #BED7B5",
"5.	c #C3DEB3",
"6.	c #BDE2B8",
"7.	c #C2E6B3",
"8.	c #CBE7AB",
"9.	c #D1E6A3",
"0.	c #D3E6A0",
"a.	c #D3E7A1",
"b.	c #D5EA9E",
"c.	c #D3EBA1",
"d.	c #D0EBA9",
"e.	c #CCEAAF",
"f.	c #C8E8AE",
"g.	c #C4E4B1",
"h.	c #C5DAB1",
"i.	c #C3D6B1",
"j.	c #C6D0AD",
"k.	c #BCC3B9",
"l.	c #BBBFB9",
"m.	c #C0BDB4",
"n.	c #C4BDAE",
"o.	c #C8C0AA",
"p.	c #C7C7AD",
"q.	c #BED2B6",
"r.	c #B9DABC",
"s.	c #B9E0BC",
"t.	c #C1E5B6",
"u.	c #C3E8B3",
"v.	c #C4E9B3",
"w.	c #CAEBAD",
"x.	c #D4E9A2",
"y.	c #D4E9A1",
"z.	c #D5EAA1",
"A.	c #D5EBA0",
"B.	c #D5EDA0",
"C.	c #D1EEA7",
"D.	c #CFECAA",
"E.	c #CAEBAC",
"F.	c #C6E7B0",
"G.	c #C6E3B0",
"H.	c #C7DFAE",
"I.	c #CADBAA",
"J.	c #C8D6A9",
"K.	c #C8D2AC",
"L.	c #C2CDB2",
"M.	c #BDC8B6",
"N.	c #C1C1B3",
"O.	c #B5C1C0",
"P.	c #B8C2BD",
"Q.	c #BAC3BA",
"R.	c #BDC5B7",
"S.	c #BFCAB5",
"T.	c #C1D0B3",
"U.	c #C0D6B4",
"V.	c #BDDEB8",
"W.	c #B9E5BD",
"X.	c #BFE8B7",
"Y.	c #C6EAB1",
"Z.	c #C5ECB1",
"`.	c #CCEDAA",
" +	c #D5EDA2",
".+	c #D5ECA2",
"++	c #D5EDA3",
"@+	c #D4EEA3",
"#+	c #D3EFA2",
"$+	c #D2EFA3",
"%+	c #CFEEA5",
"&+	c #CBEDAA",
"*+	c #CAE9AC",
"=+	c #CBE5A9",
"-+	c #CBE2A8",
";+	c #CDE1A7",
">+	c #C6DDAD",
",+	c #C0DAB4",
"'+	c #C1D4B5",
")+	c #C4CBB0",
"!+	c #C1C4B2",
"~+	c #B4C2C0",
"{+	c #B6C4BF",
"]+	c #B7C6BC",
"^+	c #BACABA",
"/+	c #BDCFB8",
"(+	c #BDD6B8",
"_+	c #BEDDB8",
":+	c #BFE2B7",
"<+	c #BEE7B7",
"[+	c #BEEAB9",
"}+	c #C8ECAE",
"|+	c #CEEEA7",
"1+	c #CEEFA8",
"2+	c #D4EFA4",
"3+	c #D6EFA4",
"4+	c #D5EEA5",
"5+	c #D2EFA8",
"6+	c #D2EFA7",
"7+	c #D2F0A4",
"8+	c #CFEFA7",
"9+	c #CDEDA8",
"0+	c #CFEAA5",
"a+	c #D1E7A2",
"b+	c #D0E4A2",
"c+	c #C9E4AC",
"d+	c #C4E3B2",
"e+	c #C5DEAF",
"f+	c #C5D8B0",
"g+	c #C0D3B7",
"h+	c #BBC0BA",
"i+	c #B8C8BC",
"j+	c #B7CFBE",
"k+	c #B9D5BC",
"l+	c #BBDBBA",
"m+	c #BEE1B9",
"n+	c #BFE6B8",
"o+	c #C1E8B4",
"p+	c #C5ECB2",
"q+	c #C5EFB2",
"r+	c #CAF0AD",
"s+	c #CFF1AA",
"t+	c #D2F2AB",
"u+	c #D5F1AA",
"v+	c #D3F0AD",
"w+	c #D0F0B0",
"x+	c #D0F0AF",
"y+	c #D1F0AB",
"z+	c #D0F0AB",
"A+	c #D0EEA9",
"B+	c #D3ECA2",
"C+	c #D3E99F",
"D+	c #CCE8A8",
"E+	c #C8E7AD",
"F+	c #C8E6AD",
"G+	c #C2E3B4",
"H+	c #C0DEB6",
"I+	c #C4D5B1",
"J+	c #BCD0B8",
"K+	c #B4CDC0",
"L+	c #B2C9C2",
"M+	c #B4C5C1",
"N+	c #B7C7BE",
"O+	c #BCD0B9",
"P+	c #B9D8BC",
"Q+	c #B9DFBD",
"R+	c #BCE4BA",
"S+	c #C0E7B6",
"T+	c #C2EAB3",
"U+	c #C7EDAE",
"V+	c #C9EFAD",
"W+	c #CBF1B0",
"X+	c #CDF3B1",
"Y+	c #D1F3B2",
"Z+	c #D3F3B4",
"`+	c #D2F2B8",
" @	c #D1F2BA",
".@	c #D0F1B9",
"+@	c #D0F1B7",
"@@	c #CEF1B4",
"#@	c #D2F0AB",
"$@	c #D3EFA6",
"%@	c #CEEDA9",
"&@	c #CEEBA6",
"*@	c #CBE9A9",
"=@	c #C4E8B1",
"-@	c #C4E6B1",
";@	c #BCE3BB",
">@	c #B2DEC2",
",@	c #B4D7C0",
"'@	c #BACCBA",
")@	c #B5C6C0",
"!@	c #B5CAC0",
"~@	c #B5CFC0",
"{@	c #B5D6C0",
"]@	c #B7DDBE",
"^@	c #C0E6B7",
"/@	c #C0E9B7",
"(@	c #C5EBB2",
"_@	c #C8EEAE",
":@	c #CBF0AE",
"<@	c #CCF3B2",
"[@	c #CCF3B6",
"}@	c #CEF4BD",
"|@	c #CDF4C1",
"1@	c #CEF4C2",
"2@	c #CEF3C2",
"3@	c #CFF2BF",
"4@	c #D0F1B5",
"5@	c #CEF1B0",
"6@	c #CFEEA9",
"7@	c #D0EDA6",
"8@	c #CCECA9",
"9@	c #BFEAB8",
"0@	c #B8E9BF",
"a@	c #BCE5BC",
"b@	c #BDDFB8",
"c@	c #B9D9BC",
"d@	c #B5D2BF",
"e@	c #B3CCC1",
"f@	c #B9C5BD",
"g@	c #B7C9BD",
"h@	c #B5D1BF",
"i@	c #B5D9C0",
"j@	c #B6E0C0",
"k@	c #B8E5BF",
"l@	c #BBE7BB",
"m@	c #C3EAB5",
"n@	c #C7ECAF",
"o@	c #C8EFAF",
"p@	c #CBF2B3",
"q@	c #CAF2B8",
"r@	c #CAF3C0",
"s@	c #CBF4C4",
"t@	c #CBF5C7",
"u@	c #CBF4C9",
"v@	c #CAF4CA",
"w@	c #CAF3CA",
"x@	c #CCF4C7",
"y@	c #CDF3C4",
"z@	c #CDF2BF",
"A@	c #D2F1B2",
"B@	c #CFF1AF",
"C@	c #C8EFB2",
"D@	c #C7EEB0",
"E@	c #BCE9BB",
"F@	c #B6E8C1",
"G@	c #B5E3C1",
"H@	c #B7DCBE",
"I@	c #BCD1B9",
"J@	c #C0C6B3",
"K@	c #B7C6BE",
"L@	c #B6CBBE",
"M@	c #B6D2BE",
"N@	c #B7DABE",
"O@	c #BAE1BD",
"P@	c #BBE6BA",
"Q@	c #BFE9B8",
"R@	c #C3EBB5",
"S@	c #C5EDB2",
"T@	c #CBF2B5",
"U@	c #C9F2BE",
"V@	c #C9F3C6",
"W@	c #C7F4CA",
"X@	c #C6F4CD",
"Y@	c #C8F4CD",
"Z@	c #C9F4CD",
"`@	c #C8F4D0",
" #	c #CAF4CC",
".#	c #CCF3C8",
"+#	c #CCF3C5",
"@#	c #CCF1BF",
"##	c #CCF1B5",
"$#	c #C8F0B3",
"%#	c #C5EEB2",
"&#	c #C5EDB1",
"*#	c #C6EAB0",
"=#	c #C5E8B1",
"-#	c #C3E2B4",
";#	c #C0DBB5",
">#	c #C1D1B3",
",#	c #C0C8B3",
"'#	c #BCC4B9",
")#	c #B9CABA",
"!#	c #B9D3BC",
"~#	c #B8DBBC",
"{#	c #BBE2BC",
"]#	c #BDE7BA",
"^#	c #C4EBB2",
"/#	c #C9EEAF",
"(#	c #CAF0B1",
"_#	c #C8F1B8",
":#	c #C9F2C3",
"<#	c #C6F3CA",
"[#	c #C7F4CF",
"}#	c #D3F5C7",
"|#	c #FAF7A4",
"1#	c #D7F5C5",
"2#	c #CAF4CD",
"3#	c #C7F3CD",
"4#	c #C9F3C9",
"5#	c #D1F2BE",
"6#	c #D1F2B3",
"7#	c #D1F1AB",
"8#	c #CEEFA9",
"9#	c #CAEEAD",
"0#	c #C4ECB3",
"a#	c #BEE9B8",
"b#	c #BCE4BB",
"c#	c #B9DEBC",
"d#	c #B8D6BC",
"e#	c #BACDBB",
"f#	c #BBC4BA",
"g#	c #B9CBBB",
"h#	c #B8D4BC",
"i#	c #B9DCBC",
"j#	c #BAE2BC",
"k#	c #BDE7B9",
"l#	c #C2EAB5",
"m#	c #C7ECB0",
"n#	c #CBF0B0",
"o#	c #C9F1B9",
"p#	c #CAF2C3",
"q#	c #C7F3CA",
"r#	c #C7F3CE",
"s#	c #D0F4CF",
"t#	c #F5F7AF",
"u#	c #FDF8AD",
"v#	c #D3F5C8",
"w#	c #C8F3CD",
"x#	c #CBF3C9",
"y#	c #CEF1B9",
"z#	c #CFF2AE",
"A#	c #CEF0A9",
"B#	c #CBEEAB",
"C#	c #C3E9B4",
"D#	c #BEDEB7",
"E#	c #BFD5B6",
"F#	c #B9C6BC",
"G#	c #B7CCBD",
"H#	c #B5D5BF",
"I#	c #B5DDC0",
"J#	c #B7E3BF",
"K#	c #B9E8BD",
"L#	c #BEEBBA",
"M#	c #C2ECB5",
"N#	c #C6EEB1",
"O#	c #CBF0AF",
"P#	c #C8F3CA",
"Q#	c #C9F3CF",
"R#	c #D5F5C7",
"S#	c #D4F5C9",
"T#	c #C8F4CF",
"U#	c #C6F3D0",
"V#	c #C6F3CF",
"W#	c #CAF3C9",
"X#	c #CEF1B8",
"Y#	c #D1F2AC",
"Z#	c #D3F1A5",
"`#	c #CAECAC",
" $	c #C5E9B1",
".$	c #C2E5B5",
"+$	c #C0DEB5",
"@$	c #C0D5B5",
"#$	c #B4C8C0",
"$$	c #B5CCBF",
"%$	c #B7D4BE",
"&$	c #BADCBB",
"*$	c #C2E2B5",
"=$	c #C9E7AD",
"-$	c #CAE9AA",
";$	c #CDECA9",
">$	c #CDEFAA",
",$	c #CBF2B6",
"'$	c #CEF2BF",
")$	c #C5F3CE",
"!$	c #C5F3D1",
"~$	c #C7F3CF",
"{$	c #C7F4D0",
"]$	c #C4F4D1",
"^$	c #C5F3D0",
"/$	c #CBF4C8",
"($	c #CBF3C4",
"_$	c #C9F2BB",
":$	c #CCF2B0",
"<$	c #CEF0A8",
"[$	c #CFEEA7",
"}$	c #CCECAA",
"|$	c #C9E9AC",
"1$	c #C8E3AE",
"2$	c #C6DCAD",
"3$	c #C2CEB1",
"4$	c #BFD9B6",
"5$	c #BFE1B8",
"6$	c #BEE8B9",
"7$	c #BFEAB7",
"8$	c #C6ECB1",
"9$	c #CCEEAA",
"0$	c #CFF0AA",
"a$	c #CDF3B3",
"b$	c #CAF2BE",
"c$	c #C7F3CC",
"d$	c #CAF3CC",
"e$	c #CBF3CC",
"f$	c #C8F4CE",
"g$	c #CCF4C6",
"h$	c #CDF3BF",
"i$	c #CEF2B3",
"j$	c #CCF1AF",
"k$	c #C4EEB2",
"l$	c #C1EBB6",
"m$	c #C0E9B8",
"n$	c #BEE4B8",
"o$	c #BEDCB7",
"p$	c #BED2B5",
"q$	c #C1C8B2",
"r$	c #C0C0B5",
"s$	c #BCC7B7",
"t$	c #B9D0BB",
"u$	c #BAE0BC",
"v$	c #BFE6B7",
"w$	c #CEEEA8",
"x$	c #CBF0AD",
"y$	c #C9F2BA",
"z$	c #CAF3C1",
"A$	c #C9F3C8",
"B$	c #C7F4CC",
"C$	c #C8F3CC",
"D$	c #C9F4CC",
"E$	c #CEF4C5",
"F$	c #CEF3C0",
"G$	c #CEF3B8",
"H$	c #CBF3B4",
"I$	c #CCF1AD",
"J$	c #CCEFA9",
"K$	c #C6EDB1",
"L$	c #BFEBB9",
"M$	c #B8E4BF",
"N$	c #B9CBBA",
"O$	c #B9C3BB",
"P$	c #BAC7BA",
"Q$	c #BDCDB8",
"R$	c #BDDEB9",
"S$	c #BFE5B8",
"T$	c #C6E9B1",
"U$	c #C4EBB3",
"V$	c #C9EFAE",
"W$	c #CAF1B0",
"X$	c #CAF3B5",
"Y$	c #CAF3BB",
"Z$	c #CBF3BF",
"`$	c #CBF3C5",
" %	c #CBF4C6",
".%	c #D2F4C2",
"+%	c #CFF3C4",
"@%	c #C9F3C7",
"#%	c #CCF3C1",
"$%	c #CDF3B9",
"%%	c #CFF3B2",
"&%	c #D2F2A9",
"*%	c #CAF0AE",
"=%	c #C4ECB2",
"-%	c #C5EAB1",
";%	c #BFE6B6",
">%	c #BAE1BC",
",%	c #B8DABD",
"'%	c #B7D1BE",
")%	c #B6CABE",
"!%	c #BEBEB5",
"~%	c #BFC2B4",
"{%	c #BECAB7",
"]%	c #BED2B7",
"^%	c #C2D9B3",
"/%	c #C1E2B6",
"(%	c #BAE8BC",
"_%	c #BDEAB9",
":%	c #C3ECB3",
"<%	c #C6EEB0",
"[%	c #C8F0AF",
"}%	c #CAF2B0",
"|%	c #CAF2B4",
"1%	c #D0F3B2",
"2%	c #CFF3B9",
"3%	c #D4F3B8",
"4%	c #CCF3BC",
"5%	c #CBF3B9",
"6%	c #D0F3B1",
"7%	c #CDF2AE",
"8%	c #CCF1AB",
"9%	c #CEEFA7",
"0%	c #C7EDB0",
"a%	c #BDEBB9",
"b%	c #BDE9BB",
"c%	c #BFE4B8",
"d%	c #C0DCB4",
"e%	c #C0D3B5",
"f%	c #BBCDB9",
"g%	c #B8C7BB",
"h%	c #BDBFB8",
"i%	c #BDC1B6",
"j%	c #C3C4B0",
"k%	c #C0CDB3",
"l%	c #B8D8BD",
"m%	c #B6E0BF",
"n%	c #BBE5BC",
"o%	c #BCEABA",
"p%	c #BEEBB8",
"q%	c #C4EDB3",
"r%	c #C7EEAF",
"s%	c #CBF3B0",
"t%	c #CCF3B5",
"u%	c #D4F4AD",
"v%	c #D1F3B1",
"w%	c #CAF3B4",
"x%	c #CEF2AD",
"y%	c #D1F0A5",
"z%	c #C9EBAE",
"A%	c #C2E9B3",
"B%	c #BBE7BC",
"C%	c #B8E2BE",
"D%	c #BBDABC",
"E%	c #C2C5B0",
"F%	c #BCC4B7",
"G%	c #B7CDBD",
"H%	c #B7D4BD",
"I%	c #BADBBB",
"J%	c #B9E1BC",
"K%	c #B9E6BC",
"L%	c #BDEABA",
"M%	c #C0ECB6",
"N%	c #C3EDB3",
"O%	c #CBF0AC",
"P%	c #C8F1B2",
"Q%	c #CCF2AE",
"R%	c #D6F2A5",
"S%	c #CFF2AA",
"T%	c #CAF1AF",
"U%	c #CAF0AF",
"V%	c #CCEFA8",
"W%	c #C1EAB6",
"X%	c #C3E7B3",
"Y%	c #C3E1B2",
"Z%	c #BCDCB9",
"`%	c #B9D7BD",
" &	c #B8CFBC",
".&	c #BAC7B9",
"+&	c #BEC0B5",
"@&	c #B9C2BC",
"#&	c #B6C5BD",
"$&	c #B9C8BA",
"%&	c #BACEB9",
"&&	c #B9D6BC",
"*&	c #BCE7BC",
"=&	c #C1EBB4",
"-&	c #CDEDA7",
";&	c #CDEEA8",
">&	c #CEF0A7",
",&	c #CCEFAB",
"'&	c #C4EDB2",
")&	c #C9EBAD",
"!&	c #C4E9B1",
"~&	c #BEE8BA",
"{&	c #C2DDB5",
"]&	c #C5D5B1",
"^&	c #BFCFB6",
"/&	c #B8C2BC",
"(&	c #B9C1BC",
"_&	c #BBC1BA",
":&	c #BBC4B8",
"<&	c #BAC9BA",
"[&	c #B8D1BD",
"}&	c #B7D8BE",
"|&	c #B8DDBD",
"1&	c #BCE6BB",
"2&	c #BDE9BA",
"3&	c #C2EAB6",
"4&	c #C7EAAE",
"5&	c #C6ECB0",
"6&	c #C2EDB5",
"7&	c #C8EDAF",
"8&	c #CEEDA8",
"9&	c #D1EDA2",
"0&	c #CFEDA5",
"a&	c #C1ECB6",
"b&	c #BEEAB8",
"c&	c #C7E5AF",
"d&	c #C0E3B6",
"e&	c #B9DFBC",
"f&	c #BBD9BB",
"g&	c #C2D0B3",
"h&	c #C0C2B3",
"i&	c #BCC2B9",
"j&	c #B7C2BD",
"k&	c #BABDBA",
"l&	c #BDBDB8",
"m&	c #BAC5BA",
"n&	c #BACAB9",
"o&	c #BAD7BB",
"p&	c #BBE1BA",
"q&	c #C0E6B6",
"r&	c #BFEAB9",
"s&	c #BEEBB9",
"t&	c #C3EAB3",
"u&	c #CEEAA5",
"v&	c #CBEBAB",
"w&	c #BBE8BC",
"x&	c #BAE6BD",
"y&	c #C4E0B2",
"z&	c #C7DBAD",
"A&	c #BAD3BB",
"B&	c #BACDBA",
"C&	c #BFC4B4",
"D&	c #BCBDB9",
"E&	c #BDBFB7",
"F&	c #BEC1B6",
"G&	c #BFC4B6",
"H&	c #BCC9B8",
"I&	c #B9D1BC",
"J&	c #BAD5BB",
"K&	c #BADABB",
"L&	c #C4E0B0",
"M&	c #C1E2B4",
"N&	c #B9E6BE",
"O&	c #B9E7BD",
"P&	c #BFE8B8",
"Q&	c #C3E7B2",
"R&	c #C6E6B0",
"S&	c #C0E6B8",
"T&	c #BAE3BD",
"U&	c #B7E1BF",
"V&	c #BBDCBC",
"W&	c #C4D4B0",
"X&	c #C4CDAF",
"Y&	c #BDCBB6",
"Z&	c #BAC8BA",
"`&	c #BFBEB6",
" *	c #B8BCBB",
".*	c #BEBFB7",
"+*	c #C0C3B4",
"@*	c #C2C4B3",
"#*	c #C2C1B3",
"$*	c #BDC3B6",
"%*	c #BAC9B9",
"&*	c #BAD2BB",
"**	c #BBD6BA",
"=*	c #C5D7AF",
"-*	c #BFDDB7",
";*	c #B5E0BF",
">*	c #B6E1BF",
",*	c #BDE2B9",
"'*	c #C0E2B5",
")*	c #C7E1B0",
"!*	c #C5DFAF",
"~*	c #BFDFB7",
"{*	c #BBDEB9",
"]*	c #B8D9BD",
"^*	c #B7D6BE",
"/*	c #BAC1BB",
"(*	c #BFC3B6",
"_*	c #C3C5B3",
":*	c #C4C5B2",
"<*	c #C2C2B2",
"[*	c #BEC3B7",
"}*	c #BCC7B9",
"|*	c #BACBBA",
"1*	c #C2CBB2",
"2*	c #C1CFB2",
"3*	c #BAD6BB",
"4*	c #B6D9BF",
"5*	c #B4DBC0",
"6*	c #BBDABA",
"7*	c #BFDAB6",
"8*	c #C3D9B2",
"9*	c #C7D5AB",
"0*	c #BFD7B6",
"a*	c #BBD6B9",
"b*	c #BBD3BA",
"c*	c #B7CABC",
"d*	c #C1C1B1",
"                              . . +                             ",
"              @ # $         % & & * = - ; > , ' ) !             ",
"              ~ , { ] ^   / ( _ : < [ } | 1 2 3 4 5             ",
"      6 !     7 8 9 0 a b c d e f c g h i j k l m n o           ",
"      p q r s t u v w x y z A B C D A E F G H I J K L           ",
"        M N l O P Q R S T U V W X Y Z `  ...+.@.#.$.%.          ",
"        &.*.=.-.F ;.>.,.'.).!.~.{.].^./.(._.:.<.[.}.|.          ",
"          1.2.3.4.5.6.7.8.9.0.a.b.c.d.e.f.g.5.h.i.j.    0 k.l.  ",
"    m.n.o.p.q.r.s.t.u.v.w.x.y.z.A.B.C.D.E.F.G.H.I.J.K.L.M.N.    ",
"O.P.Q.R.S.T.U.V.W.X.Y.Z.`. +.+++@+#+$+%+&+*+=+-+;+>+,+'+)+!+l   ",
"~+{+]+^+/+(+_+:+<+[+}+|+1+2+3+4+5+6+7+8+9+0+a+b+c+d+e+f+g+w     ",
"h+k.i+j+k+l+m+n+o+p+q+r+s+t+u+v+w+x+y+z+A+B+C+D+E+F+G+H+I+J+K+L+",
"M+N+^+O+P+Q+R+S+T+U+V+W+X+Y+Z+`+ @.@+@@@#@$@%@&@*@=@-@;@>@,@'@u ",
")@!@~@{@]@m+^@/@(@_@:@<@[@}@|@1@1@2@3@ @4@5@6@7@8@9@0@a@b@c@d@e@",
"f@g@h@i@j@k@l@m@n@o@p@q@r@s@t@u@v@w@x@y@z@A@B@C@D@Z.E@F@G@H@I@J@",
"K@L@M@N@O@P@Q@R@S@C@T@U@V@W@X@Y@Z@`@ #.#+#@###$#%#&#*#=#-#;#>#,#",
"'#)#!#~#{#]#/@^#/#(#_#:#<#X@[#}#|#1#2#3#4#5#6#7#8#9#0#a#b#c#d#e#",
"f#g#h#i#j#k#l#m#9#n#o#p#q#r#s#t#u#v#[#w#x#2@y#z#A#B#m#C#t.D#E#w ",
"F#G#H#I#J#K#L#M#N#O#@@3@P#3#Q#R#S#T#U#V#W#2@X#Y#Z#8+`# $.$+$@$w ",
"#$$$%$&$*$=$-$;$>$O#,$'$4#)$!$~${$]$^$w#/$($_$:$<$[$}$|$1$2$    ",
"    3$4$5$6$7$8$9$0$a$b$V@c$d$e$T#f$f$w@g$h$i$j$o@k$l$m$n$o$p$q$",
"r$s$t$N@u$v$C#}+w$x$p@y$z$A$B$C$D$3#u@E$F$G$H$I$J$K$L$K#M$H@!#N$",
"O$P$Q$(+R$S$T$U$%#V$W$X$Y$Z$`$ %.%+%@%#%$%%%&%*%k$=%-%;%>%,%'%)%",
"!%~%{%]%^%/%(%_%:%<%[%}%|%1%2%Z$3%3%4%5%6%7%8%9%0%a%b%c%d%e%f%g%",
"h%i%j%k%l%m%n%o%p%q%r%r+I$s%t%t%u%v%t%w%x%y%V+r%z%A%B%C%D%J+E%  ",
"    F%G%H%I%J%K%L%M%N%D@>$O%P%Q%R%S%T%U%T%V%9+0#W%X%Y%Z%`% &.&+&",
"  @&#&$&%&&&]@C%*&L%=&p+-&;&q+x$7+y%>&,&'&N%)&!&~&b#{&]&^&g#]+/&",
"q (&_&:&<&[&}&|&j#1&2&3&4&5&6&7&8&9&0&=%a&b&l#c&d&e&f&g&  h&i&j&",
"  k&l&8 m&n&t$o&|&p&R+q&u.r&s&t&4&u&v&W%W%w&x&y&z&;.A&B&C&      ",
"    D&E&F&G&H&I&J&K&e&L&M&N&O&P&Q&/.R&S&n$T&U&V&W&X&Y&Z&f#`&    ",
"   *.*+*@*#*$*%*Q$&***=*-*;*>*,*'*)*!*~*{*&$]*^*@.    9 /*r     ",
"    (*_*:*<*2 [*}*|*1*2*3*4*5*6*7*8*9*0*a*b*t$j+c*d*    ' 5     "};
