/* XPM */
static char * floor_xpm[] = {
"80 80 2 1",
" 	c None",
".	c #5C0E00",
"              ........                    ... ...........      .                ",
"             ..............             ...    ..........     ..                ",
"          ......       ....................  ............     ..                ",
"  .............           ............  .........     ....  ....                ",
" .............             .....  ... .....           ...........               ",
".............               ...    .....               ...........              ",
".............                ..    .....                ............   .....    ",
"...       ...                ..    ....                 ....  ...............   ",
".         ...                .      ..                  ...   ...............   ",
"           ..                .      ..                  ....  ............      ",
"            ..               ..     ..                   ...............        ",
"             ..              ..     ..                  ....   ........         ",
"             ..             ....   ...                  ..       .....          ",
"             .....         ...........                 ..         ....          ",
"             .....        ... ........                ...          ...          ",
"            ...     ...................              ...            ...         ",
"            ..       .............  ....            ....            ...        .",
"           ..        ..... ....       ....        .....             ...        .",
"           ..         ........          ....   ........              ......  ...",
".          ..         ........          ...............              ...........",
".          ..         ........           ......     ...              ....  .....",
"..        ....       ..........          ....        ..              ...    ....",
"..       ......    .............        ...          ..             ...      ...",
"..      ..............      .....      ...           ..             ...         ",
"...   ...............         ....   .....          ...             ...         ",
"...........   ......           ............       ......           .....        ",
"..........     ....             .....    ...    .... ...          ......     .. ",
".........      ....             ....      .........   ...        ...............",
"........       ....             ...       .........   .....     ............... ",
"...   ..       ....             ...      ....... .................      .....   ",
".     ..       .....            ...      .....    ....   ........       ....    ",
"     ..        ......          .....    ....     ...       .....        ....    ",
"    ...        .......        .............      ..         ...          ...    ",
"   ....        ........      .............      ..          ...         ....    ",
"  .....       .....  ..........     .....      ..            .          ....    ",
" ......     .....     ........      ....       .                        ......  ",
"........   ....          ....       ....      .              .         .........",
". ............            ...       ...     ...             ...       ......... ",
"      .......             ...       ...    ....             ............     .. ",
"       ......             ...       ...   .....            ...........        ..",
"        .....             ...      ............           .... ......         ..",
"         ....              ..     .............         ....     ...           .",
"          ...              ...   .........  ...        ....      ...           .",
"           ..             ..............     ....   .....        ..            .",
"           ...            .............       ...........        ..            .",
"           ....           .....    ...        ...........       ...            .",
"           ....           ....     ..         .....  ....      ...             .",
"           .....          ...     ..          ....    ...     ....             .",
"          .......        ...     ...          ..      .............           ..",
".        .........     ...      ....         ..       ........   ..          ...",
"...     ....  ............   ......        ....       .......               ....",
"...........   ...........   .......        ....       ..    .              .....",
"..........   .......................    .......       ..    ..    ..............",
".    .........................................        .     ...  ...............",
"       ........    ..........   ..............      ..     ...      .........   ",
"        ......     .........     ....      ....    ...    ...           ....    ",
"        ....      .....   ..    ....        .... .....   ....           ....    ",
"        ...      ....     ...  ....          ................           ...     ",
"       ...      ....      .........          ................           ...     ",
"       .       ....      .........           ....  .....  ...           ....    ",
"      ..      .....    ...........           ........... ....          .........",
"..  ...      ......  ......   .....         ...................     ............",
"......     ..............        ..        ........      ............    .......",
".......   ..............          ..      ........        .........       ......",
"...........       ......          ................         .....           .... ",
".  ........        .....           ......... ....          ....            ...  ",
"    .....           ....           .............           ....            ...  ",
"    ....            ....          ....  ........           ...             ..   ",
"    ....             ....        ...       ......         ....             ..   ",
"     ..             .. ...       ...        ......      ......             .    ",
"     ..             ..  ...    .....         ......   .........                 ",
"    ...            ... .............           ..........    ....        .      ",
"    ...           ..... .   .......              ......      ........ ....      ",
"   ....           ....          ...               ....        ...........       ",
"   .....        .....            ..                ...        ......            ",
"      ..      .....              .                 ...        ....              ",
"      ............                .                ...       ....               ",
"       ...........                ..               ...       ...                ",
"        .....  ...               ...              .....     ....                ",
"         ....  ...                ..            ..    .........                 "};
