/* XPM */
static char * floor_xpm[] = {
"32 32 461 2",
"  	c None",
". 	c #665642",
"+ 	c #645540",
"@ 	c #655540",
"# 	c #655641",
"$ 	c #675743",
"% 	c #635440",
"& 	c #60503C",
"* 	c #5E4E39",
"= 	c #5B4A34",
"- 	c #58462F",
"; 	c #5B4831",
"> 	c #594833",
", 	c #574731",
"' 	c #574630",
") 	c #56442E",
"! 	c #54432D",
"~ 	c #52412C",
"{ 	c #50402B",
"] 	c #51402C",
"^ 	c #51402B",
"/ 	c #51402A",
"( 	c #53422C",
"_ 	c #52422D",
": 	c #51412C",
"< 	c #51422E",
"[ 	c #544532",
"} 	c #564836",
"| 	c #564937",
"1 	c #63533E",
"2 	c #62523D",
"3 	c #64543F",
"4 	c #675843",
"5 	c #645541",
"6 	c #594935",
"7 	c #56452F",
"8 	c #54422B",
"9 	c #524029",
"0 	c #594732",
"a 	c #564530",
"b 	c #55442E",
"c 	c #56442F",
"d 	c #574631",
"e 	c #4E3D28",
"f 	c #4E3D27",
"g 	c #503F28",
"h 	c #53412B",
"i 	c #51412D",
"j 	c #4F3F2B",
"k 	c #4E3D29",
"l 	c #4D3D29",
"m 	c #4E3E2A",
"n 	c #4F402D",
"o 	c #51422F",
"p 	c #524431",
"q 	c #514330",
"r 	c #695A45",
"s 	c #63533F",
"t 	c #61523E",
"u 	c #564834",
"v 	c #53432F",
"w 	c #5A4A34",
"x 	c #5B4B36",
"y 	c #584834",
"z 	c #574632",
"A 	c #574732",
"B 	c #54432E",
"C 	c #513F28",
"D 	c #503E26",
"E 	c #523F28",
"F 	c #54422A",
"G 	c #53412C",
"H 	c #50402C",
"I 	c #51412E",
"J 	c #544531",
"K 	c #574835",
"L 	c #554734",
"M 	c #52432F",
"N 	c #50412E",
"O 	c #514230",
"P 	c #695A46",
"Q 	c #695945",
"R 	c #62533F",
"S 	c #5A4B39",
"T 	c #544633",
"U 	c #5A4A35",
"V 	c #5C4C37",
"W 	c #5C4D3A",
"X 	c #5F503D",
"Y 	c #5D4D39",
"Z 	c #594A35",
"` 	c #584732",
" .	c #564631",
"..	c #56452E",
"+.	c #55432B",
"@.	c #523F26",
"#.	c #534027",
"$.	c #55432C",
"%.	c #554632",
"&.	c #574836",
"*.	c #574935",
"=.	c #594A37",
"-.	c #5A4C39",
";.	c #574937",
">.	c #645440",
",.	c #5F513E",
"'.	c #594B38",
").	c #5F503C",
"!.	c #5B4C39",
"~.	c #544430",
"{.	c #544129",
"].	c #55422B",
"^.	c #534029",
"/.	c #5B4C38",
"(.	c #635644",
"_.	c #625543",
":.	c #5E503D",
"<.	c #5C4E3B",
"[.	c #534431",
"}.	c #665742",
"|.	c #61513C",
"1.	c #62523E",
"2.	c #60503D",
"3.	c #584A38",
"4.	c #594B39",
"5.	c #5F513F",
"6.	c #594A38",
"7.	c #554532",
"8.	c #61503B",
"9.	c #60503B",
"0.	c #534532",
"a.	c #56442D",
"b.	c #55422A",
"c.	c #5C4D38",
"d.	c #615340",
"e.	c #5C4D39",
"f.	c #5A4B37",
"g.	c #574733",
"h.	c #564632",
"i.	c #604F3A",
"j.	c #5C4A34",
"k.	c #5B4A33",
"l.	c #5E4C36",
"m.	c #60503A",
"n.	c #645642",
"o.	c #5D4F3C",
"p.	c #544735",
"q.	c #564835",
"r.	c #503F2B",
"s.	c #584731",
"t.	c #5D4D38",
"u.	c #584A37",
"v.	c #534533",
"w.	c #54442F",
"x.	c #584833",
"y.	c #5D4E3A",
"z.	c #5E4F3C",
"A.	c #5C4B35",
"B.	c #594832",
"C.	c #5B4A35",
"D.	c #625340",
"E.	c #524331",
"F.	c #554531",
"G.	c #55442F",
"H.	c #57452F",
"I.	c #584937",
"J.	c #564A38",
"K.	c #5A4C3B",
"L.	c #594934",
"M.	c #55432D",
"N.	c #52412A",
"O.	c #5B4B35",
"P.	c #61533F",
"Q.	c #645542",
"R.	c #655744",
"S.	c #60513D",
"T.	c #685945",
"U.	c #584934",
"V.	c #5F4E39",
"W.	c #4E3F2A",
"X.	c #574936",
"Y.	c #524433",
"Z.	c #5C4E3A",
"`.	c #53432D",
" +	c #4B3A24",
".+	c #54432C",
"++	c #5F4E38",
"@+	c #5E4F3B",
"#+	c #5E4D37",
"$+	c #675845",
"%+	c #635541",
"&+	c #594A36",
"*+	c #5F4E3A",
"=+	c #5C4B36",
"-+	c #544634",
";+	c #524432",
">+	c #5B4D3B",
",+	c #5C4C38",
"'+	c #493823",
")+	c #493822",
"!+	c #4F3E27",
"~+	c #58462E",
"{+	c #5C4932",
"]+	c #5B4933",
"^+	c #675844",
"/+	c #5D4C38",
"(+	c #57452E",
"_+	c #554633",
":+	c #5A4C3A",
"<+	c #4D3F2C",
"[+	c #4C3C28",
"}+	c #4E3C26",
"|+	c #5A4830",
"1+	c #59452C",
"2+	c #58452D",
"3+	c #5B4931",
"4+	c #5E4C34",
"5+	c #5A4932",
"6+	c #594730",
"7+	c #584832",
"8+	c #57462F",
"9+	c #57442C",
"0+	c #53412A",
"a+	c #514029",
"b+	c #504331",
"c+	c #534432",
"d+	c #514432",
"e+	c #534634",
"f+	c #554735",
"g+	c #554530",
"h+	c #5A472F",
"i+	c #5E4A31",
"j+	c #5D4A32",
"k+	c #5F4E37",
"l+	c #5F4D36",
"m+	c #5D4C35",
"n+	c #5D4D37",
"o+	c #594731",
"p+	c #59462F",
"q+	c #52402A",
"r+	c #4F3F2A",
"s+	c #504230",
"t+	c #564938",
"u+	c #514433",
"v+	c #5A4730",
"w+	c #5B482F",
"x+	c #5A4832",
"y+	c #5A4831",
"z+	c #4F402C",
"A+	c #514332",
"B+	c #514331",
"C+	c #5C4F3E",
"D+	c #5A4E3C",
"E+	c #504332",
"F+	c #4C3E2D",
"G+	c #4C3E2C",
"H+	c #4C3E2B",
"I+	c #4E3F2B",
"J+	c #53422D",
"K+	c #584630",
"L+	c #64533E",
"M+	c #62513B",
"N+	c #5D4B35",
"O+	c #52432E",
"P+	c #594831",
"Q+	c #4E402D",
"R+	c #4F412E",
"S+	c #564734",
"T+	c #4D402F",
"U+	c #453929",
"V+	c #463A29",
"W+	c #493C2B",
"X+	c #4F4231",
"Y+	c #584936",
"Z+	c #594936",
"`+	c #5B4B37",
" @	c #63523D",
".@	c #62503A",
"+@	c #564633",
"@@	c #503F2A",
"#@	c #4D3E2B",
"$@	c #4B3E2E",
"%@	c #463A2B",
"&@	c #4A3F31",
"*@	c #524637",
"=@	c #544838",
"-@	c #574A39",
";@	c #5E4F3D",
">@	c #614F39",
",@	c #63513A",
"'@	c #64523C",
")@	c #5E4F3A",
"!@	c #5B4D3A",
"~@	c #5E4E3B",
"{@	c #5D4C37",
"]@	c #4A3C2B",
"^@	c #45392A",
"/@	c #4B4031",
"(@	c #554938",
"_@	c #584B3A",
":@	c #5A4D3B",
"<@	c #584935",
"[@	c #5F4C35",
"}@	c #5E4B34",
"|@	c #65543E",
"1@	c #66553F",
"2@	c #635542",
"3@	c #5F4F3A",
"4@	c #50422E",
"5@	c #4B3C29",
"6@	c #5B4E3D",
"7@	c #5F5241",
"8@	c #605341",
"9@	c #5A4933",
"0@	c #604D36",
"a@	c #604F39",
"b@	c #63523C",
"c@	c #665641",
"d@	c #665743",
"e@	c #54422C",
"f@	c #4A3B27",
"g@	c #50412D",
"h@	c #534330",
"i@	c #594B3A",
"j@	c #5E513F",
"k@	c #5E5140",
"l@	c #5B4E3C",
"m@	c #5F4F39",
"n@	c #5C4A32",
"o@	c #62513C",
"p@	c #5E4D38",
"q@	c #5A4A36",
"r@	c #5A4934",
"s@	c #4F3D28",
"t@	c #4D3E2A",
"u@	c #493A28",
"v@	c #4A3B29",
"w@	c #534430",
"x@	c #574833",
"y@	c #5C4E3C",
"z@	c #615442",
"A@	c #655745",
"B@	c #5F4D37",
"C@	c #52422E",
"D@	c #4B3C28",
"E@	c #4B3C2A",
"F@	c #4A3C29",
"G@	c #4A3A26",
"H@	c #5D4F3D",
"I@	c #625442",
"J@	c #5A462E",
"K@	c #58442B",
"L@	c #574834",
"M@	c #4E3F2D",
"N@	c #4F3F2C",
"O@	c #4E3F2C",
"P@	c #544431",
"Q@	c #615341",
"R@	c #604E38",
"S@	c #5D4C36",
"T@	c #5C4830",
"U@	c #57432B",
"V@	c #56442C",
"W@	c #4C3D29",
"X@	c #493925",
"Y@	c #5E4E38",
"Z@	c #61523D",
"`@	c #5F4F3B",
" #	c #604F3B",
".#	c #614F37",
"+#	c #57432A",
"@#	c #58452C",
"##	c #5B472E",
"$#	c #5A472E",
"%#	c #493A27",
"&#	c #463825",
"*#	c #524330",
"=#	c #614F38",
"-#	c #62513A",
";#	c #625039",
">#	c #5B4932",
",#	c #5C4A33",
"'#	c #4A3A27",
")#	c #564733",
"!#	c #4F3E29",
"~#	c #58452B",
"{#	c #60513C",
"]#	c #61513B",
"^#	c #64543E",
"/#	c #544533",
"(#	c #4D3C26",
"_#	c #4E3B24",
":#	c #4E3B22",
"<#	c #513E26",
"[#	c #57442B",
"}#	c #59452B",
"|#	c #59462D",
"1#	c #5F4F3C",
"2#	c #675742",
"3#	c #5C4B34",
"4#	c #564630",
"5#	c #503D25",
"6#	c #533E24",
"7#	c #544026",
"8#	c #564228",
"9#	c #5A462D",
"0#	c #5E4B33",
"a#	c #685946",
"b#	c #655642",
"c#	c #604E39",
"d#	c #544028",
"e#	c #564127",
"f#	c #56432A",
"g#	c #5C4930",
"h#	c #604D35",
"i#	c #665845",
"j#	c #675946",
"k#	c #574329",
"l#	c #58432A",
"m#	c #614E36",
"n#	c #624F37",
"o#	c #695B47",
"p#	c #6A5C49",
"q#	c #58452E",
"r#	c #59462E",
"s#	c #59472F",
"t#	c #5A462C",
"u#	c #5D4930",
"v#	c #5F4B32",
"w#	c #604C34",
"x#	c #624F36",
"y#	c #64523B",
"z#	c #665540",
"A#	c #6A5A46",
"B#	c #6B5C48",
"C#	c #6A5B47",
"D#	c #6C5D48",
"E#	c #5B4830",
"F#	c #5D4B34",
"G#	c #655541",
"H#	c #59452D",
"I#	c #5E4A30",
"J#	c #5F4B33",
"K#	c #635038",
"L#	c #67563F",
"M#	c #6C5B46",
"N#	c #6E5F4A",
"O#	c #6F614C",
"P#	c #6D5E4B",
"Q#	c #6D5F4C",
"R#	c #6F604D",
"S#	c #584730",
"T#	c #5C4931",
"U#	c #5E4C35",
"V#	c #60513E",
"W#	c #675640",
"X#	c #6B5B46",
"Y#	c #6D5D48",
"Z#	c #6F604C",
"`#	c #70624F",
" $	c #6E604D",
". + @ # $ % & * = - ; > , ' ) ! ! ~ { ] ^ / ( _ : { { { < [ } | ",
". 1 2 3 4 5 6 7 8 9 - 0 a b c d a ~ e f g 9 h i j k l m n o p q ",
"r . s 1 3 t u v 7 a w * x y z A d B C D E F G : H I J K L M N O ",
"P Q . s s R S T U V W X Y Z ` d  ...+.@.#.$.! %.&.*.=.-.;.N o p ",
"P $ 3 2 >.5 ,.} '.).!.W Y * x A ~.B ) {.].^.C /.(._.:.<.=.J L [.",
"}.@ 1 2 |.1.2.3.4.5.6.7.U 8.9.!.0.I / 9 a.$.b.c.d.d.e.f.y g.h. .",
"i.j.k.l.m.>.n.o.p.q.J r.s.t.Y u.v.[ w.h $.$.$.d x.f.W y.z.y./.x.",
"|.A.B.C.i.8.D.W E.N F.G.H.x.I.J.K.f.L.) M.N.( w.7 O.t P.Q.R.S.t.",
"T.t U.g.C.V.Y 6 < W.7 = U X.Y.p.Z.V s.`.e  +f ~ .+- j.++t P.@+#+",
"$+%+&+F.> *+=+> G.w.) s.K -+;+>+X ,+F.j '+)+!+8 {.].~+{+V.t.x ]+",
"^+t ,+x.C.1./+B.(+M.H.a } 0._+:+>+6.;+<+[+}+.+|+1+2+3+4+++t.5+6+",
"5 V ` ) $.d 7+8+9+0+a+r.b+c+[ d+e+f+T [.g+a.h+4+i+j+k+l+= d ]+m+",
"n+0 o+) ^ ^ b p+9+q+f r+s+e+K.t+u+;+[.~.a ..a.v+w+v+o+o+7+g+* 1 ",
"#+x+x+7 H j ) y+) i z+[ A+B+C+D+E+F+G+H+I+i { J+o+A.A a K+b = L+",
"M+N+=  .I O+P+B.B H Q+0.R+H+S+;.T+U+V+W+X+-+Y+Z+`+t.y : M.h -  @",
".@.@O.S++@7+6+7 J+@@l #@i _ v [.$@%@&@*@=@-@;@e.&+/.y M ` ]+k.>@",
",@'@)@!@~@{@y+H.G.! _ < ~.x.h.B+]@^@/@(@_@:@W <@S+f.x.J ` l+[@}@",
"|@1@1.2@R 3@A.x+s.7 F.[ _+M v 4@5@G+u+6@7@8@:.L _+x U U.9@}@0@.@",
"a@b@c@d@t x 9@x+8+e@: [+f@5@g@h@o [ [.0.i@j@k@l@5.S.L.x x+v+y+m@",
"k.n@a@o@p@Y q@r@! s@j t@u@v@n i w@x@G.~ S+'.y@z@A@,+x.d ..$.H.{@",
"; 2+3+k+B@#+L.W C@D@G+#@#@E@F@G@I L.A.w.S+=.H@I@2@@+@+C.- - y+A.",
"J@K@K@j+4+2+) L@v z+M@Q+z+N@O@m P@g+d v S+x S.Q@X t s R@3+j.A.S@",
"h+1+K@h+T@U@V@s.s.d F.o W@X@[+h.=.N < [ y Y@Z@t `@ #2 .#0@B@B@l.",
"+#@#h+n@##$#h+j./+q@F.z+%#&#D@y ,.T *#v 7 3+l.|.|.9.2 R@=#-#;#=#",
"$#; >#,#h+}@[@#+<@M W@'#O@o w@)#W C@!#!#q++#~#|+{@3@{#n+{@p@]#^#",
">#>#A.V.#+#+{@f./#R+t@e ^ a A A  .(#_#:#<#[#}#|#o+)@1#* 3@|.>.2#",
",#3##+8.a@S@h.I H ~ 4#a M.) s.U ` !+5#6#7#8#9#0#}@m.Q.a#^+b#4 Q ",
"c#V.++#+B@N+x._ a++.y+= s.G.d C.9@( d#e#8#f#g#.#h#++% i#j#$+>.$ ",
"8.]#2 i.#+m+n+P++.a.6+]+d B ' A.#+o+9+k#l#9#g#m#n#M+5 o#p#^+@ 1@",
"1 2 ]#++V.* =+q#9+r#s#9@L.y =+|.s |.C.p+t#u#v#w#x#y#z#A#B#C#B#D#",
"3 ]#A.B.x U ` - 2+E#F#* @+@+|.3 G#G#2 = H#g#I#J#K#L#M#N#O#P#Q#R#",
"# V.S#> ,+9@y+>#T#0#U#p@).V#5 @ }.$ 3 p@o+N+l+;#'@W#X#Y#Z#`# $B#"};
