/* XPM */
static char * planet_xpm[] = {
"80 80 251 2",
"  	c None",
". 	c #00FFFF",
"+ 	c #76C8B2",
"@ 	c #75C9B4",
"# 	c #74CAB5",
"$ 	c #73CCB8",
"% 	c #6FD0BD",
"& 	c #67D7C9",
"* 	c #85B390",
"= 	c #87B08A",
"- 	c #88AF88",
"; 	c #88AE87",
"> 	c #88B089",
", 	c #88B08A",
"' 	c #87B18B",
") 	c #86B38F",
"! 	c #82B898",
"~ 	c #7BC2A8",
"{ 	c #68D7C8",
"] 	c #8AAB81",
"^ 	c #8BAB80",
"/ 	c #8AAC82",
"( 	c #8AAC83",
"_ 	c #89AD84",
": 	c #89AD85",
"< 	c #89AE86",
"[ 	c #83B897",
"} 	c #78C6AE",
"| 	c #6AD5C5",
"1 	c #4AECE6",
"2 	c #2EF8F5",
"3 	c #8DA678",
"4 	c #8DA778",
"5 	c #8CA87A",
"6 	c #8BA97E",
"7 	c #88AF89",
"8 	c #89AC84",
"9 	c #84B695",
"0 	c #63DBCE",
"a 	c #3DF2EE",
"b 	c #14FDFD",
"c 	c #8FA370",
"d 	c #8EA474",
"e 	c #8CA97C",
"f 	c #8AAB80",
"g 	c #89AE87",
"h 	c #87B08B",
"i 	c #87B18C",
"j 	c #86B28D",
"k 	c #87B18D",
"l 	c #81BA9C",
"m 	c #6DD2C0",
"n 	c #44EFEA",
"o 	c #1CFCFB",
"p 	c #08FEFE",
"q 	c #85B491",
"r 	c #85B490",
"s 	c #86B28E",
"t 	c #8BAA80",
"u 	c #71CDBA",
"v 	c #4DEBE4",
"w 	c #22FBFA",
"x 	c #07FEFE",
"y 	c #84B694",
"z 	c #83B695",
"A 	c #83B796",
"B 	c #83B795",
"C 	c #84B593",
"D 	c #85B592",
"E 	c #8BAA7F",
"F 	c #76C9B3",
"G 	c #4EEAE3",
"H 	c #1EFCFA",
"I 	c #81B99A",
"J 	c #81BA9B",
"K 	c #82B999",
"L 	c #83B797",
"M 	c #8BA97D",
"N 	c #8CA87C",
"O 	c #45EFE9",
"P 	c #13FDFD",
"Q 	c #7FBDA0",
"R 	c #7FBC9F",
"S 	c #80BC9E",
"T 	c #80BB9C",
"U 	c #88AF87",
"V 	c #6FD0BE",
"W 	c #0DFEFE",
"X 	c #7DBFA4",
"Y 	c #7EBEA2",
"Z 	c #7FBDA1",
"` 	c #80BC9F",
" .	c #82B99A",
"..	c #8BAA7E",
"+.	c #8CA779",
"@.	c #67D8C9",
"#.	c #2FF7F5",
"$.	c #7CC1A7",
"%.	c #7DC0A5",
"&.	c #80BB9D",
"*.	c #87B28D",
"=.	c #8DA677",
"-.	c #8CA77A",
";.	c #50E9E2",
">.	c #1AFCFC",
",.	c #7AC4AB",
"'.	c #7BC2A9",
").	c #7CC1A6",
"!.	c #7EBFA3",
"~.	c #8DA779",
"{.	c #8EA575",
"].	c #70CFBC",
"^.	c #36F5F2",
"/.	c #90A16C",
"(.	c #79C5AD",
"_.	c #7BC3A9",
":.	c #8DA575",
"<.	c #53E7DE",
"[.	c #19FCFC",
"}.	c #8FA26F",
"|.	c #77C7B0",
"1.	c #79C5AC",
"2.	c #89AE85",
"3.	c #8DA676",
"4.	c #8EA472",
"5.	c #32F6F4",
"6.	c #8EA473",
"7.	c #75C9B3",
"8.	c #78C6AF",
"9.	c #7AC4AC",
"0.	c #8EA371",
"a.	c #46EEE8",
"b.	c #0CFEFE",
"c.	c #8FA16D",
"d.	c #5DE0D5",
"e.	c #21FBFA",
"f.	c #73CBB7",
"g.	c #7AC3AA",
"h.	c #8FA26E",
"i.	c #34F6F3",
"j.	c #8CA87B",
"k.	c #90A16D",
"l.	c #40F1EC",
"m.	c #06FFFE",
"n.	c #90A069",
"o.	c #46EEE9",
"p.	c #919E67",
"q.	c #49EDE7",
"r.	c #8AAB82",
"s.	c #71CEBB",
"t.	c #74CBB6",
"u.	c #919E65",
"v.	c #49EDE6",
"w.	c #75CAB5",
"x.	c #77C7B1",
"y.	c #8FA371",
"z.	c #90A06B",
"A.	c #919D65",
"B.	c #72CDBA",
"C.	c #90A06A",
"D.	c #929D63",
"E.	c #72CDB9",
"F.	c #84B592",
"G.	c #919F68",
"H.	c #929C61",
"I.	c #48EDE7",
"J.	c #73CCB7",
"K.	c #78C5AE",
"L.	c #7AC3AB",
"M.	c #919E66",
"N.	c #929C60",
"O.	c #75CAB4",
"P.	c #77C7AF",
"Q.	c #7EBEA1",
"R.	c #81BA9A",
"S.	c #86B38E",
"T.	c #929D64",
"U.	c #85B492",
"V.	c #79C4AC",
"W.	c #3FF2ED",
"X.	c #74CBB5",
"Y.	c #81BB9C",
"Z.	c #8CA97D",
"`.	c #939B5E",
" +	c #7DC0A4",
".+	c #7CC2A7",
"++	c #7EBEA3",
"@+	c #929D62",
"#+	c #939A5D",
"$+	c #5CE1D6",
"%+	c #1FFBFA",
"&+	c #8EA372",
"*+	c #939B5F",
"=+	c #46EFE9",
"-+	c #0BFEFE",
";+	c #7FBD9F",
">+	c #8EA574",
",+	c #929C62",
"'+	c #93995B",
")+	c #30F7F4",
"!+	c #56E5DC",
"~+	c #919D64",
"{+	c #53E7DF",
"]+	c #90A16B",
"^+	c #929B60",
"/+	c #05FFFE",
"(+	c #52E7DF",
"_+	c #919F67",
":+	c #17FDFC",
"<+	c #68D7C7",
"[+	c #939A5C",
"}+	c #2DF8F6",
"|+	c #3FF1ED",
"1+	c #939A5B",
"2+	c #3BF3EF",
"3+	c #0FFEFD",
"4+	c #15FDFC",
"5+	c #8DA576",
"6+	c #76C8B1",
"7+	c #42F0EB",
"8+	c #4FEAE2",
"9+	c #4CEBE5",
"0+	c #22FBF9",
"a+	c #1BFCFB",
"b+	c #43F0EB",
"c+	c #6ED1C0",
"d+	c #63DCCF",
"e+	c #8FA270",
"f+	c #909F69",
"g+	c #62DCCF",
"h+	c #3AF4F0",
"i+	c #2CF8F6",
"j+	c #6AD5C6",
"k+	c #47EEE8",
"l+	c #2AF9F7",
"m+	c #16FDFC",
"n+	c #32F7F4",
"o+	c #4BECE5",
"p+	c #66D8CA",
"q+	c #67D8CA",
"r+	c #3BF3F0",
"s+	c #65D9CB",
"t+	c #6ED1BF",
"u+	c #72CCB8",
"v+	c #52E8E0",
"w+	c #06FEFE",
"x+	c #2BF9F7",
"y+	c #31F7F4",
"z+	c #35F5F2",
"A+	c #35F6F2",
"B+	c #35F6F3",
"                                                                                                                                                                ",
"                                                                                                                                                                ",
"                                                                                                                                                                ",
"                                                                                    . . . . . . .                                                               ",
"                                                                                      . . . . . . . . . .                                                       ",
"                                                                                        . . . . . . . . . . .                                                   ",
"                                                                                            . . . . . . . . . . . .                                             ",
"                                                                                              . . . . . . . . . . . . .                                         ",
"                                                                                                . . . . . . . . . . . . .                                       ",
"                                                                                                . . . . . . . . . . . . . . .                                   ",
"                                                                                                  . . . . . . . . . . . . . . .                                 ",
"                                                                                                    . . . . . . . . . . . . . . .                               ",
"                                                                                                      . . . . . . . . . . . . . . .                             ",
"                                                                                                      . . . . . . . . . . . . . . . .                           ",
"                                                                                                        . . . . . . . . . . . . . . . .                         ",
"                                                                                                        . . . . . . . . . . . . . . . . .                       ",
"                                                                                                          . . . . . . . . . . . . . . . . .                     ",
"                                                                                + @ # $ % &               . . . . . . . . . . . . . . . . . .                   ",
"                                                                      * = - ; - > > , ' ) ! ~ $ {         . . . . . . . . . . . . . . . . . .                   ",
"                                                                  ] ^ ^ ] / ( _ _ : : : _ < - ' [ } | 1 2   . . . . . . . . . . . . . . . . . .                 ",
"                                                              3 4 5 6 ^ ( : ; - 7 > 7 - - < : 8 _ - 9 + 0 a b . . . . . . . . . . . . . . . . . .               ",
"                                                            c d 3 e f ( g 7 h i j k j i ' , - < _ ( / - l m n o p . . . . . . . . . . . . . . . .               ",
"                                                                      g = j ) * q q q r ) s i = - : / t ] q u v w x . . . . . . . . . . . . . . . .             ",
"                                                                            y z A B z 9 C D * j h - : / E E i F G H . . . . . . . . . . . . . . . .             ",
"                                                                              I J I K K L B C q s ' - : ] M N 7 # O P . . . . . . . . . . . . . . . .           ",
"                                                                                Q R S T J K L y q s ' U _ f N 5 = V a W . . . . . . . . . . . . . . .           ",
"                                                                                  X Y Z ` T  .[ y q s = < / ..+.+.* @.#.x . . . . . . . . . . . . . . .         ",
"                                                                                    $.%.Y Q &.I [ y r *.- _ ^ N =.-.S ;.>.. . . . . . . . . . . . . . .         ",
"                                                                                    ,.'.).!.Q &. .A C ) = g / ..~.{.] ].^.x . . . . . . . . . . . . . .         ",
"                                            /.                                        (._.).Y R l ! y r i 7 _ t 5 :.{.y <.[.. . . . . . . . . . . . . . .       ",
"                                          {.}.                                        |.1.'.%.Y S J A D j = 2.] N 3.4.6 ].5.. . . . . . . . . . . . . . .       ",
"                                          d 6.                                        7.8.9.~ X Q l ! C ) = < ] M =.4.0.K a.b.. . . . . . . . . . . . . .       ",
"                                        ] {.=.                                        # |.(.'.%.Z &.K 9 r ' - / ..4 6.c.8 d.e.. . . . . . . . . . . . . .       ",
"                                        ..3 5                                         f.+ } g.).Y S K z q i - ( ..+.6.h.3 $ i.. . . . . . . . . . . . . .       ",
"                                        e j...^                                       $ F 8.,.).!.S  .A q j - _ ..-.6.k.}.&.l.m.. . . . . . . . . . . . . .     ",
"                                      s e M ] _                                       $ F 8.,.$.!.S J A q j - ( E +.d k.n.' o.m.. . . . . . . . . . . . . .     ",
"                                      ' M E ( ; '                                   ].$ 7.8.,.$.!.S I A q i - ( E ~.6./.p._ q.m.. . . . . . . . . . . . . .     ",
"                                      = M r.: 7 j                                   s.t.+ } g.).Y S  .z r i - ( ..4 6./.u.] v.m.. . . . . . . . . . . . . .     ",
"                                      ' ../ < = ) C                               ].$ w.x.(.'.%.Z &.! y r i ; / M 3 y.z.A.] q.m.. . . . . . . . . . . . . .     ",
"                                      i E ( ; ' * y K                           % B.t.F 8.,.~ X Q l ! y ) = < r.N =.y.C.D.t q.m.. . . . . . . . . . . . . .     ",
"      .                               j t _ U ' * y K S !.                    ].E.t.7.x.(.g.).Y R J A F.j 7 : ^ j.{.}.G.H.E I.m.. . . . . . . . . . . . . .     ",
"      .                               ) ^ ( - ' ) y ! T Z ).g.            E.E.J.t.7.|.K.L.$.X Q &.K 9 q i - ( ..~.6.k.M.N.] I.m.. . . . . . . . . . . . . .     ",
"      . .                             9 ] / ; ' ) C [ J Q !.~ ,.} |.+ @ O.# O.7.+ P.(.L.~ %.Q.S R.A C S.h < ] e =.y.z.T.H.7 O m.. . . . . . . . . . . . . .     ",
"      . . .                           Q ( r.: = s U.z K &.Z X $.g.(.} 8.|.x.|.8.K.V.g.~ %.Y R J ! y r k 7 _ ^ j.{.}.G.H.u.I W.m.. . . . . . . . . . . . . .     ",
"      . . . .                         X.; f _ - i * y [ J &.Z X $.'.L.,.V.(.V.,._.~ ).X Y R Y.! z q s = < r.Z.3 4.k.M.`.k.J.i.m.. . . . . . . . . . . . . .     ",
"      . . . .                           s E ( < = s q 9 ! J S Z Y  +).$.~ ~ .+$.).%.++Q S J ! B C ) ' ; _ E 5 {.}.C.@+#+5 $+%+. . . . . . . . . . . . . .       ",
"      . . . . .                         &.r.] : - ' ) F.z ! J &.R Q.Y !.X X X !.Y Q ` &.J ! B F.) ' - _ ] e =.&+/.M.*+N.C =+-+. . . . . . . . . . . . . .       ",
"        . . . . .                       s.7 t / : 7 i ) D z [  .l &.S ` ;+Q Q R S &.J K [ y U.) i 7 : ] M ~.>+}.G.,+'+h.s.)+m.. . . . . . . . . . . . . .       ",
"        . . . . . . .                   !+K ^ ^ ( < 7 i ) q C A ! K R.J l l J J K ! [ 9 C q s ' - < / 6 -.{.c z.~+`.#+' {+>.. . . . . . . . . . . . . . .       ",
"        . . . . . . . .                   s.- ..t ( < 7 i s * q C z A L [ [ L A B y C q ) k = U : ] ..5 {.y.]+u.^+'+c s.i./+. . . . . . . . . . . . . . .       ",
"        . . . . . . . . .                 (+Q ] M t / < - = i s ) r q D U.C D D q * ) j h 7 < _ f M +.3.&+/._+H.'+,+L G :+. . . . . . . . . . . . . . .         ",
"          . . . . . . . . . .               <+C M Z.E / _ < - = ' i j s s s s s j i = 7 ; : / ^ M ~.{.y./._+,+'+[+/ & }+/+. . . . . . . . . . . . . . .         ",
"          . . . . . . . . . . . . .         |+% i j.j...^ / _ < ; - - , > = , 7 - U < _ / ^ 6 5 3 >+c /._+,+[+1+~.].2+3+. . . . . . . . . . . . . . . .         ",
"          . . . . . . . . . . . . . . . .   4+o.@ 7 -.-.e ..t ] / ( _ : : : : _ 8 ( ] t ..j.4 5+4.}.C.M.H.[+1+>+6+7+3+. . . . . . . . . . . . . . . .           ",
"            . . . . . . . . . . . . . . . . . o 8+F 7 -.=.-.j.e 6 E E ^ ^ f ^ E E M e 5 ~.3.6.c k.C.u.H.'+[+=.P.9+[.. . . . . . . . . . . . . . . . .           ",
"            . . . . . . . . . . . . . . . . . p 0+v E.s 5 5+3.=.~.-.j.j.j.j.j.5 +.4 =.{.6.c h.C.p.@+*+'+H.E J.1 H /+. . . . . . . . . . . . . . . .             ",
"              . . . . . . . . . . . . . . . . . x a+b+m ! E {.6.d {.{.3.:.3.:.>+d 4.y.}.k.z._+~+H.#+`./.s c+l.[./+. . . . . . . . . . . . . . . . .             ",
"              . . . . . . . . . . . . . . . . . . . P a d+|.s j.6.c }.e+c e+}.h.k./.C.f+M.T.N.*+H.C.r.(.g+h+P . . . . . . . . . . . . . . . . . .               ",
"                . . . . . . . . . . . . . . . . . . . P i+q.j+V.s N {.}./.n.f+G.p.M.D.,+,+T.G.c < _.j+k+l+3+. . . . . . . . . . . . . . . . . . .               ",
"                . . . . . . . . . . . . . . . . . . . . x m+n+o+p+f.X s E =.6.6.&+y.c &+~.> Z t.q+1 )+P /+. . . . . . . . . . . . . . . . . . .                 ",
"                  . . . . . . . . . . . . . . . . . . . . . x [.i+r+{+s+t+u+t.t.X.t.t.$ V s+v+h+i+:+/+. . . . . . . . . . . . . . . . . . . . .                 ",
"                    . . . . . . . . . . . . . . . . . . . . . . w+W H x+y+i.z+z+A+B+i.i.y+x+o -+m.. . . . . . . . . . . . . . . . . . . . . .                   ",
"                    . . . . . . . . . . . . . . . . . . . . . . . . . m.m.m.m.m.m.m.m.m.m.m.. . . . . . . . . . . . . . . . . . . . . . . .                     ",
"                      . . . . . . . . . . . . . . . . . . . . . . . . . . . . . . . . . . . . . . . . . . . . . . . . . . . . . . . . . .                       ",
"                        . . . . . . . . . . . . . . . . . . . . . . . . . . . . . . . . . . . . . . . . . . . . . . . . . . . . . . . . .                       ",
"                          . . . . . . . . . . . . . . . . . . . . . . . . . . . . . . . . . . . . . . . . . . . . . . . . . . . . . . .                         ",
"                            . . . . . . . . . . . . . . . . . . . . . . . . . . . . . . . . . . . . . . . . . . . . . . . . . . . . .                           ",
"                              . . . . . . . . . . . . . . . . . . . . . . . . . . . . . . . . . . . . . . . . . . . . . . . . . . .                             ",
"                                . . . . . . . . . . . . . . . . . . . . . . . . . . . . . . . . . . . . . . . . . . . . . . . . .                               ",
"                                  . . . . . . . . . . . . . . . . . . . . . . . . . . . . . . . . . . . . . . . . . . . . . .                                   ",
"                                    . . . . . . . . . . . . . . . . . . . . . . . . . . . . . . . . . . . . . . . . . . . .                                     ",
"                                        . . . . . . . . . . . . . . . . . . . . . . . . . . . . . . . . . . . . . . . .                                         ",
"                                            . . . . . . . . . . . . . . . . . . . . . . . . . . . . . . . . . . . . .                                           ",
"                                              . . . . . . . . . . . . . . . . . . . . . . . . . . . . . . . . . .                                               ",
"                                                    . . . . . . . . . . . . . . . . . . . . . . . . . . . . .                                                   ",
"                                                        . . . . . . . . . . . . . . . . . . . . . . . .                                                         ",
"                                                                . . . . . . . . . . . . . . . .                                                                 ",
"                                                                                                                                                                ",
"                                                                                                                                                                ",
"                                                                                                                                                                "};
