/* XPM */
static char * player_xpm[] = {
"32 32 40 1",
" 	c None",
".	c #0EFF4D",
"+	c #34FC4C",
"@	c #15FF4D",
"#	c #19FE4D",
"$	c #29FD4D",
"%	c #75EB47",
"&	c #3EFA4C",
"*	c #20FE4D",
"=	c #5BF44A",
"-	c #9AD941",
";	c #57F54A",
">	c #24FE4D",
",	c #81E645",
"'	c #3DFA4C",
")	c #ABCD3D",
"!	c #65F149",
"~	c #28FD4D",
"{	c #95DB42",
"]	c #54F64A",
"^	c #BBBF38",
"/	c #86E444",
"(	c #44F94C",
"_	c #A6D13E",
":	c #72EC47",
"<	c #CFA931",
"[	c #BAC139",
"}	c #DB992C",
"|	c #D5A22F",
"1	c #E78325",
"2	c #F75C18",
"3	c #DF932A",
"4	c #FF360E",
"5	c #F4641B",
"6	c #FB4E14",
"7	c #FA5115",
"8	c #EB7B22",
"9	c #F3681C",
"0	c #FD4010",
"a	c #F65D19",
"                                ",
"                                ",
"                                ",
"                                ",
"               ..               ",
"               ..               ",
"              ....              ",
"             ......             ",
"             ......             ",
"             ......             ",
"            .......             ",
"            .......             ",
"             ......             ",
"             .....              ",
"            .......             ",
"            .......             ",
"            .......             ",
"             ......             ",
"             ......             ",
"         .........  ..          ",
"        .........   ...         ",
"        ..+@...... .#$..        ",
"       ...%&........*=...       ",
"        ..-;.. .  ..>,'..       ",
"         .)!.      .~{].        ",
"          ^/        (_:         ",
"          <          [          ",
"          }          |          ",
"          12         3          ",
"         4567        89         ",
"          40         a          ",
"                                "};
