/* XPM */
static char * spacefloor2_xpm[] = {
"80 80 92 2",
"  	c None",
". 	c #27325A",
"+ 	c #26325A",
"@ 	c #263259",
"# 	c #263159",
"$ 	c #1A2343",
"% 	c #0C142D",
"& 	c #0D152F",
"* 	c #1E284A",
"= 	c #263158",
"- 	c #212B50",
"; 	c #111934",
"> 	c #0D142E",
", 	c #161F3D",
"' 	c #222D51",
") 	c #232E54",
"! 	c #1D2749",
"~ 	c #101834",
"{ 	c #131C39",
"] 	c #1F294C",
"^ 	c #242F55",
"/ 	c #253057",
"( 	c #131B37",
"_ 	c #111A36",
": 	c #253056",
"< 	c #253157",
"[ 	c #161F3E",
"} 	c #0C142E",
"| 	c #1D274A",
"1 	c #1F294D",
"2 	c #212C50",
"3 	c #243056",
"4 	c #182140",
"5 	c #101833",
"6 	c #151E3B",
"7 	c #151E3C",
"8 	c #1A2444",
"9 	c #212B4F",
"0 	c #222D52",
"a 	c #202A4E",
"b 	c #0F1732",
"c 	c #1E284B",
"d 	c #192242",
"e 	c #0E1631",
"f 	c #0E1630",
"g 	c #111935",
"h 	c #1B2546",
"i 	c #1C2648",
"j 	c #1A2445",
"k 	c #222D53",
"l 	c #222C51",
"m 	c #17203E",
"n 	c #212C51",
"o 	c #17203F",
"p 	c #131B38",
"q 	c #141C39",
"r 	c #121A36",
"s 	c #1C2647",
"t 	c #232F54",
"u 	c #1E294B",
"v 	c #1C2547",
"w 	c #182241",
"x 	c #192342",
"y 	c #1B2445",
"z 	c #1B2545",
"A 	c #192343",
"B 	c #141C3A",
"C 	c #161E3C",
"D 	c #1A2344",
"E 	c #1C2546",
"F 	c #202B4F",
"G 	c #253158",
"H 	c #1F2A4D",
"I 	c #1D2748",
"J 	c #1D2648",
"K 	c #0F1733",
"L 	c #192241",
"M 	c #151D3B",
"N 	c #141D3A",
"O 	c #0C132D",
"P 	c #202A4D",
"Q 	c #182141",
"R 	c #232E53",
"S 	c #242F54",
"T 	c #0F1631",
"U 	c #242F56",
"V 	c #131C38",
"W 	c #121A37",
"X 	c #0E1530",
"Y 	c #232D53",
"Z 	c #121B37",
"` 	c #202B4E",
". . . . + . . . . @ . . @ @ . # $ % & * @ # = @ . @ @ . . @ . . @ . @ @ . @ # . . + @ = - ; > , ' = # + @ @ @ ) ! ~ { ] ^ / ^ ! ( _ ! : @ . . . . . . . . . . . ",
". . + @ @ . . . . @ + . . @ < ) [ % } , | 1 2 ^ : ^ 3 # @ # . @ @ . + @ . . @ . . @ 3 - 4 5 6 7 8 9 2 - ' 0 a 4 5 b c = @ . + ' 4 , 2 + @ = @ + . . . . . . . . ",
". . = / = . . @ . @ = . = : 0 d e & > f 5 g 7 h i j | ' k ) / = / # . = / 3 < / ^ l h m 4 c 0 n o p 4 7 q 7 r b f q 9 . = # . ' o s = . = = # @ . . + . . . . . ",
". @ 3 0 ' = . . @ = / t u v $ b b w x d y z h i A B C $ w D s ! v s ! E h y E s ! v m m ! ) 0 a m e ~ b e 5 b & } q F . + + G * { E @ . = < = @ . @ . . . . . . ",
". = 0 u s a 2 0 ' H I D { 5 ~ e d k ) ) / / / 3 l J D , f K 5 5 b 5 5 b b g 6 d ! | L m h J , M 6 ( B w z h h N O K i ^ = / P C f 4 ^ . @ = @ . . @ . . . @ . . ",
"@ ) u D C 6 , 4 Q M g r K } ; L 0 @ = @ @ . . . @ : ) u C > % > { 4 4 p O N I a H i 7 N h I L d ! c ] R : ^ S i b } 6 D v s 6 f > 7 2 + . = @ + . @ . @ / / @ + ",
"^ 1 y o g b T b f & f r ~ O m 9 @ . # . . . @ . @ . @ = - 7 b & w 9 0 c { C ! E m 4 4 8 0 / 3 3 G G < @ @ = @ n [ f T K b ~ & % > _ s U @ @ @ @ . @ G ) 2 R / @ ",
"a y m 6 ; p { q p ; 5 ~ & g ] < . . = = . . . . @ # . . 3 F , f D ) @ : h g V b b ! 0 ) = @ . . @ . . @ @ @ . / | q f > } } 5 5 } > q s c 0 S t k a | v h a ) < ",
"s o 7 o , * u ] ] i d q O p n @ = @ G : @ # @ . @ = @ . # ) 4 W u / . = c ~ X K $ ) @ @ . @ = @ G = . # @ = . + Y $ b % X q y d g % & K 5 o y y w q g { m i 9 ^ ",
"L { d H J U = = / U R E & V 2 . + . = G . # @ . . @ @ @ = 0 o 6 0 + + . 2 N & M n @ . + @ . : @ : ^ @ # = @ @ @ ^ J ~ } p u 3 a B & } > } f ; b b b & b V L * 2 ",
"B r ] < ) @ . + . @ @ R 4 r ] G . @ 3 < . @ @ = @ . . @ = = y , 0 @ . . G d % , 0 + = . @ @ @ . G 3 = + + . # @ # H ~ } 4 ) = H M & > b O & X > > X 5 N 4 y E c ",
"4 * 3 . @ . . @ + @ . G c g Q 0 . . / / . @ @ = @ . . . . @ J o 0 . . @ . h } $ ) @ G = + @ . . # = # @ @ @ @ . . ) C O { h i , f % b C m g & } & B h 2 ) 2 H | ",
"c G + @ @ @ . @ . @ + + ) v o z S . = G . @ = = . @ = @ . @ h { ] @ . + . s 5 u # . @ = @ # @ + . + . + @ / G @ . l q O { 7 o 6 p K & N d M > } , 1 / @ G / / Y ",
"R . @ @ @ @ . @ . . @ + @ 3 h r u . # @ @ @ G = . . + . @ 0 6 & 8 U . + : $ r a . . @ @ @ @ @ @ . . . . @ / = . < ! _ B c H F 9 F y 5 X b b % 7 F = . # U : @ @ ",
"^ . @ + . + @ = . . = # . < ! b o ] H U . . + @ @ . . 3 a Q N W , c R l i ( 5 ! = @ = . . . . + + @ @ @ . @ . @ - w o H G G G G # S ! 7 f } g ! G + G = = G = . ",
"0 @ + G @ . @ / # @ = @ . ^ h ; b ~ N * ^ ^ = . . . @ ] p ~ v * B Z o , K & X D / . = # # + . @ # = @ . . @ . 0 [ ; i / @ @ @ = @ @ / ] M T N 1 @ . = @ = < / @ ",
"9 . . / . . @ G # @ # @ @ 0 w g { o $ h | * u H 2 0 P m } & i H Z > e X O } X 7 H < + @ @ @ @ @ # @ . @ = U t E X ~ a . = / = # = @ . ^ * b ~ 8 ) # @ . # U = . ",
"F @ + = @ . @ @ + @ @ @ = 1 o { | 3 : 0 9 | 4 p M , Z b ; } p , & b Z M , N _ b V 1 . + . . . . @ + . < ) P ! B X d ) @ = G = @ @ # + @ 3 d > b i ^ @ @ G G # @ ",
"$ a @ @ @ . @ . . @ @ @ 0 d d i ) . + @ = ^ ] ~ & T T Q h r b & ; d I a 0 ] ! [ T N 1 / . . . . @ . @ ] $ 8 ! B { - @ + G # @ . + # # . + * b g d 2 @ @ @ = . . ",
"7 E / . . @ @ . . @ @ . * N ! R @ . @ . . # R N } b 6 c c Z 5 { ! R / = = / ^ l i 7 M h F ) = . Y H ! M g , D B o Y @ @ @ = @ . + @ @ + . 0 m 8 c c c a t G / - ",
"V o ) . G @ . @ . @ . . y p 9 @ . . @ @ + . = L > T 6 z 4 b & 4 ) @ . . = . # @ / z e b M D ! J 7 r g & > f ~ 5 h / + . . = # @ @ @ @ @ . 0 o d h , ~ p , E j M ",
"b 5 c . @ . . = @ @ . = A V H : = @ @ @ @ . 3 4 % } f g e & f $ : . = + = @ = @ . l o b & T ; p { L v D 8 [ Z b i @ . + . # @ @ @ + @ @ @ R o 5 5 r C 4 W b b & ",
"} } , ) . # @ @ @ . / a , p y - = . . . . @ 2 N O > O } O > b d ) . @ @ # # = # . < i g & ~ , i F 3 < / / l 8 g s @ . @ . . . @ @ @ . . + S Q } b j k ^ c q 5 } ",
"O } p a @ G @ . . . 2 4 g ; p $ k @ = U ' ! [ & O b ~ 5 ~ & > _ ! 3 @ . @ = @ + . ) o f 6 * ' / = @ . . + ^ v Z ! . . @ . . . . @ @ . . . ) [ & o 0 @ . ^ H Q K ",
"} } Z * : # . = / 0 $ g & b f 5 Q | ! 8 [ K b { d s * c c Q g > M ! ) . @ @ . @ / ] p B F < @ . . @ . . = ^ 8 p ] . . @ . @ @ + + + . . . k V e i < @ @ @ = 0 h ",
"[ _ g $ ' . . R ` A T X } Z B b f 5 5 T & X C a / < G G = ) j _ 5 { c # G 3 ) F s 7 b L / . . . . @ @ . @ 9 M K ] + @ . @ = # @ . . . . . H e 5 u = # # + = @ ^ ",
"Y $ e p * k F y 7 ~ X 5 4 ] ] 4 & O ; b g 4 ] : . = G . . @ U u m K N s h ! y , p p _ , ' . = . . @ @ ^ H d p & 4 k @ . . = @ @ @ = . . 3 A b ; x R . . = / G ^ ",
"= i e & m Q V 5 b } g d ' = = n , O 5 g 4 - U = @ < / = = @ . = l 4 f b ; r 7 d ! ! 7 g ! ) S . @ ) 1 $ q d Q g W J U . + + . @ = @ . 0 i { f f W * < . + @ l s ",
"= | ~ % ~ 5 > > } O m 9 @ . . = s O & g y ^ @ . @ = / G # / # . # u 5 O g w H S G / * p N 4 d ! ! $ M q o * n i p 6 1 = . @ . . + . 0 w r X } } > , ! a 0 a o ~ ",
"# | g O > & ~ K O g ] < . # = . H b & ~ h S . @ @ @ = = . < = @ . ' M & N a = + # . ^ A 5 e f K ~ 5 & W J ) @ 9 W & 7 ] k / / < = 0 w b & g ( { ~ e 5 p m q f } ",
"0 w ; g W s ] Q f $ / . # @ # . 2 Z T b 8 3 . @ G @ = # @ : = + . 0 M & m ^ . G / @ ) x 5 5 f f _ C N r o F n $ f & b { o s | v s o g [ o ! ] H z _ O e ~ X { Q ",
"Q 5 N s ] < = h f ! . @ = @ G . - { 5 & N R @ . @ = / < G ^ < . . ' M T 8 G . G @ @ a M e & r m i l a 7 f p 4 m Q h 4 r 5 _ , ~ b f o R Y : = = ^ D 5 b ; { u ) ",
"N 6 ! ) G @ R 4 ; P . = # @ G @ ` Z _ b T D l @ . = U < = = @ . / a M T Q ^ . @ . U v _ f N y F : @ R , O { E 9 ^ 3 n s C p N f O { H @ G < # @ @ ] ; > b i : @ ",
"$ - < @ @ ^ h p Q U . / . = = . H X ~ p ~ T 8 R @ = 3 = @ . . ) E N f } 6 c k 0 - h r b N - ^ = . ^ c , , 2 : # @ = @ / c o r & { H = @ = U = = . 2 B & ; 1 = . ",
"0 # @ @ ^ * ~ & $ G . 3 @ @ + # $ } ~ W & & g s / + @ @ . . R 7 5 g e O f _ , M g ~ > ( H @ = . / * 4 D R = . . # # . + : ! b g c 3 @ @ = / @ = . ) , f r a @ . ",
"@ . U F E { } T * + / ^ . . t F , > f V N N { C z a n a a a h Z m D y D A V X e O K o u G . @ . 2 o o ] @ @ + @ G G @ @ @ 2 , L 0 = @ @ G / @ @ . l { } b ] / . ",
". # F o 5 & e _ * G U / + ) | Q M r W E - 0 F L K r N r W r _ L ' ^ / / S y & f > M F / . . . @ u o ! ^ . = # @ # = @ . . t s 1 G . @ . @ # @ . . ` g O 5 [ * R ",
"2 ! m 5 f O 5 ~ o 2 = @ R j m N 8 u H ^ # @ # 2 $ o N f e & N F @ @ . . @ ] 5 } e i < @ . . < 2 h ! ^ @ < G = @ @ # @ @ @ ^ v c / + @ + . . . + t D & O & f V L ",
"7 p 6 6 r & b f f 4 l 2 [ r [ A 0 = = + @ = @ # ^ k u N } % $ / . G G = . 0 p O N R . . = ^ ] C o 0 @ @ G < < = = / G @ @ 3 Q o 2 # . + . . # l x b X Z ~ e > g ",
"o h a a v z Q C & f C 4 & ; z ` @ . / = . / 3 = # @ : y O O | + . = < / @ 0 r f i @ . . 0 8 q & d = . < @ / / G / 3 # . . 2 Z b D H F F 2 2 ! [ { , s 1 ! d W p ",
"R : G = / / k a D ; f [ 6 V ] S . . G / # G 3 @ @ . + c } O ! . @ @ @ @ . ! f { 2 @ / / ! b & K ] . # G @ / / = = = . G 0 o & } r r g r { M Z M J R < = : ) * o ",
"@ @ @ = @ + @ / ) D b o 4 M 2 # . @ + @ @ = ^ = / = . 1 e O h = . + @ @ ^ [ } 7 1 F ! ! { O O 7 0 G 3 @ = G < @ . . @ 9 m 5 b N N f O } > b d 9 / @ @ @ @ @ G ! ",
". @ @ = @ @ @ @ = 2 L o 5 7 0 . . @ @ . . # : / < = . Y M & w / . @ G 0 h f > b 6 M 5 5 & & O Z 2 # : @ + = # @ . = c N { 4 i a 2 * p O & o 0 # . . @ @ = # @ ^ ",
". + = = @ @ = @ . / H 8 & q R . # @ = G @ G / < @ # . U L % o t + / F L 5 ~ Z b & e b p m [ & & * . @ + @ + . @ 0 y 5 5 A ) < = @ 3 $ & f c / . @ @ # @ G < @ @ ",
"# # < G @ @ = @ . + ^ F q ( 0 . @ . = / @ # G G + @ @ k N O p h ! s 7 e > b q b O { ! F R 2 d f , - ) / = / 2 ! m e ~ E ' = . @ + @ i & N ) + # G @ @ @ < ^ # . ",
"= = : / @ . @ @ @ . @ / 8 b J t . . = / G @ = < # @ . 2 b } & b K g T } % } X & b J G # @ # ) 4 e N Q h i y { K & O L : @ . . @ . . s b J = . G G @ @ . / ^ G . ",
"G = < # @ . @ @ # . . @ s & p $ 0 @ = G = # @ # # @ . 2 ~ & O f Z 4 h y q } O p h ) . = @ @ @ c b & f b b b > X f } y @ = G = . . 3 x ; ] = @ < G @ @ @ < / # . ",
"+ . @ . @ = = @ # @ . . J & > e s + . @ . # @ . . . . ] f % r D ] 0 : ^ s r o ] ) G @ # @ = . F r } O g 4 [ { f } b c . G < < @ R h V , 0 = @ G < G = @ G G @ . ",
". . @ # = / G @ = G + + i % % O 4 S . . . = < . . . G z } > x 0 = @ U - $ m 9 / : 3 = . @ + . H b O T $ R 0 ] q O W a . = @ G n d 5 b y < = @ = < < = @ = G G / ",
"F / + @ @ = = # G # . = Q O & O K A l @ . + G . @ < 0 o K 4 9 / @ @ F $ q i : G U : / # @ . = * X _ $ l @ # < D } & L H c 1 H Q Z N 6 $ 2 < @ # G = @ @ = = : Y ",
"N h ' . . @ @ @ + . = ] T O > O } e [ 0 . @ + = G a 7 M i R < @ = l d b r F # / 3 < : @ + . ] Z 5 I R # . @ . * O O e ~ 5 ~ o d h 2 s , u 3 @ . = / = @ = . U v ",
"& g 4 ] 0 U . . G l s N f m 8 d r O & 4 ! H 9 u h M ~ h ^ # ) P J w ~ % { n = / / = # . ^ | M & 4 3 @ . G / = H b O 5 { b O Q F ) @ 9 y F = @ + . @ + . @ ) * , ",
"O > f r M | 0 l 1 w b & 4 ^ : - 7 } O f 5 W N p b & m ' / / * q b T } f d ^ @ G G @ . = ] g & % i @ G = = = @ 1 W p E H y g s / @ . G 0 2 G @ . . . . @ ) d q 6 ",
"& > b ~ & p o 7 M g } N F ^ 2 ! W % e T O } & & % e 8 a E y q & O & O T o ^ @ @ = ^ n | 7 _ > ~ 9 . U = + @ @ s g 8 ) = t h I ) = # G n y ! P 0 k l Y 9 D f T q ",
"> b o v Q M { & & > g v ) i [ p & > g { ; & O e X > N , b T b Z B r O } 5 ! F F * x W 5 _ j Z N R . / @ @ @ t $ , H @ . = ] 7 D 2 - J 4 ; K ; 7 4 m o C b O } 5 ",
"r A 2 3 ) 0 H $ 6 O & m y p X > g d i | 8 b O f & O & T } e 4 c ] 8 ~ O } 5 { { r 5 } O p h W 7 ) . @ . = ^ ! y F : . @ 0 m b m c * y $ 4 r b g _ X X f % b _ x ",
"! ) # + @ @ = U - M O f b X b r s U < ^ h 5 O } X ~ ; > & N P / = l 6 O & O r o D s j , C C & M 0 . . ^ 0 J q h = + # 9 L f m - ) R ^ : ) ] c c y g O & X o * : ",
"/ @ = / @ G + . = 8 > O } o h c 3 . # 0 Z > O g 4 | s r e y ^ . . ^ [ O r o | ^ / < / R 9 A b ; J ) U i 4 _ & v . @ n C e e ! # @ = @ . = / / = U d O } _ u / . ",
"# # U / = = = . + s % O w 0 S G @ . 3 $ > g ( s Y 3 ^ o > A U . R u q O 6 ] G . + G / @ / H N > g 4 A ( f > O m 9 F o & O Z 2 . . : 3 . = @ @ . . E & O 7 R @ . ",
"= G 3 / = @ G . / 4 > o R @ G . . ^ s b f o E Y @ @ # A } W * 9 y 7 5 b 4 ) . # = / ^ @ = R Q O } 5 ~ p V f O f M 6 K } & 7 0 . G ^ / . G @ # @ . h } O 4 ^ + . ",
"G # # = = = + = ] C $ 0 # . + . R E Z & , J R @ # ^ l , & f p C r & e o 2 = @ G / 3 3 # # < s & T { 4 H H q e X C s ! o f g F . G U = . = / @ . = $ } } C l = . ",
"@ . @ + + @ . H 7 y ^ @ @ . . ^ $ b > p | ^ @ G 0 * m f e > > & > O f $ = @ < / / 3 / @ @ + | X f , ! 0 ] M K X m 9 R i r > ! @ + @ . . . @ @ / - N O % 5 w ] 0 ",
") 9 F R / ^ a , N 9 . . . @ 0 J { } > 7 l = 0 ! d N X e N C o N K 5 5 m ) . = < G / # . @ R w & & Z o 4 q K 5 f r L d M ( > 4 9 t < # 3 / k u y o b O } X b Z o ",
"4 M C A y $ N , u = . = ) c m ; & f > 5 v * , ~ e 5 N ! F k ^ ' * i o 7 c = . @ < / . . 0 o e ~ 7 N T f N m 8 y j y 6 & & } ~ [ x v s A $ 4 , 4 L [ 7 W } & > e ",
"e e W W T e b 8 R = : l h ; & X e Z W } b r f % O , ] < # # . @ = / c C m ) . . @ @ . < s X O g d , } r ! 0 U ^ ^ ^ H C & O T ~ e b g _ { x ! 0 0 9 a 8 & } > f ",
"} f B p K e b , J c D m , [ d J ! ] I V f g M { ~ ] = . . G < = # . ^ s 7 y F 2 ^ ) H i K & e & { { b y ^ = . + = + G u N O ; g X ; w c n R S # / U / 2 4 } f b ",
"K T $ a d W e K 5 g e X v ) ^ < G G < H g b 8 o 6 9 . + U ^ 3 = = # = F N g { o Q M r b 5 L y W & & 6 0 @ # = = @ = = ) s 5 & & r i ^ G @ @ G / t / @ = ] e e W ",
"g , ` = Y d 5 > O b , x 0 / G @ . = . / I , , b N l . + : ^ < . G / G 0 4 } > r M ~ } O q ! J q X 6 ] G @ = = G / U / t s b & { h ) + @ # = = < U : < . 2 { V j ",
"C * U . @ ] g % O { H t # < G # . = @ + ^ ! { % V a . . G / = . @ # @ 0 d O ; m h m b } ~ 4 { f b h U @ . / G < / / @ ^ z & e d 2 # . G = @ = = / 3 / . 2 M 4 9 ",
"x n G @ . l p % b y / @ # / : / + # G @ < 2 M 5 ( A R = < / / @ . . ^ v g W ! n R a s Q V f & & b d ) @ # / / G @ @ 3 1 N % 5 s ^ . @ G @ # = @ G : < @ H { z S ",
"I ^ @ = + R 6 > N 2 + . G 3 S ^ = = / @ # R C , Q , i ) @ @ @ . . = ] r } E < @ = ^ ^ R c 5 > > 5 B ! / + @ = @ . ) i C & O 5 s ^ . . = G @ @ # / / @ . ] m F G ",
"] t @ G @ Y C > , U . @ @ ^ t 3 # / / . @ P o ] 2 4 7 * / / < / R H m > ; F . . = / < @ 3 * { O e X W ] / 3 G ^ 1 o p B Z & & , ] / . + @ . . @ G @ . / ! h ) @ ",
"1 H ) @ . 0 7 } m U @ = @ : U G . G = # R $ m 9 R 4 5 C i * J h 4 V b O p 0 @ @ + @ @ . + G F d g O > p d w h $ B g Q 1 a A p b C ] ^ @ . @ . @ = / 2 ] y u ^ @ ",
"l u 0 . + 0 7 e 4 ^ = @ = = 3 G . @ + / | 6 b w * 4 q [ A 4 N W f > W g N ) @ = # @ . + + @ # : 8 7 N > b f b ~ , J k = = / I ~ & 6 y * 9 Y S t ' c L s ] n 3 @ ",
"^ 2 9 R ) h g f $ / # # @ = / = . @ . ] Z f } , | c H ' k 9 * s $ M 5 5 h @ @ # # = = @ . . . @ 0 l n d f e O , - 3 G @ @ . 0 , & 5 ~ g p 6 4 4 o [ d ] S / = @ ",
"= ^ n H i 7 ; T w ^ . . . . @ . . 0 c 6 & ; 7 u U / < @ = # G < 3 c { r a . . # # # @ . . @ . . = @ @ 9 M e O y < + @ @ < . 3 A e e & } > g o D z y ! l < @ @ . ",
"@ G ^ n ] ! y p { H # . @ @ : ^ ] C ; f N * - G + . @ . . @ @ . . ^ y [ 0 . . # = + . . + = @ . @ @ . : ! r } J @ @ # @ G @ < z & > W m D ] 0 ^ U ) ) : # . . . ",
". @ = < / G ) A W o a 2 9 ] h $ V & > { c / # . . @ + . @ @ @ @ . @ - d ] = . @ = . . . . @ . + = / @ @ l [ b * . # # . @ . ^ A } 5 y ' 3 G @ @ + @ @ @ @ . . . ",
". . @ @ = / ) J , { C [ 7 r b r 5 > b A : + . . . . . . @ @ . @ @ . 0 [ , ) . . # . + . . @ . @ = = . G * N > i . . . + @ . H { } 7 2 # = = @ @ @ . . . . . . . ",
". . . + # < ^ 0 a 8 q g 5 f M v w ~ 5 J + . . . @ + . . @ @ . @ @ . 0 N b - . . @ + @ . . @ . . + . / F o p e D ) G = / / l o X 5 v : + / G @ @ @ . . . . . . . "};
