/* XPM */
static char * wall_xpm[] = {
"32 32 979 2",
"  	c None",
". 	c #67422F",
"+ 	c #69412D",
"@ 	c #6E432E",
"# 	c #714730",
"$ 	c #744931",
"% 	c #72452D",
"& 	c #714329",
"* 	c #734226",
"= 	c #754224",
"- 	c #764321",
"; 	c #774523",
"> 	c #794725",
", 	c #794724",
"' 	c #774521",
") 	c #77451F",
"! 	c #76441E",
"~ 	c #75431D",
"{ 	c #77431D",
"] 	c #77431E",
"^ 	c #74411D",
"/ 	c #723E1B",
"( 	c #713E1D",
"_ 	c #703D1E",
": 	c #6D3B1D",
"< 	c #6C391C",
"[ 	c #6C391D",
"} 	c #6B391F",
"| 	c #693921",
"1 	c #693C26",
"2 	c #6B3F2B",
"3 	c #69402D",
"4 	c #6B4430",
"5 	c #6A402B",
"6 	c #6D412A",
"7 	c #72442C",
"8 	c #764A32",
"9 	c #75482E",
"0 	c #714023",
"a 	c #713F1F",
"b 	c #733F1B",
"c 	c #74421B",
"d 	c #774620",
"e 	c #794922",
"f 	c #794B22",
"g 	c #784A20",
"h 	c #78491F",
"i 	c #794B20",
"j 	c #7B4A20",
"k 	c #7A491D",
"l 	c #79471A",
"m 	c #79451A",
"n 	c #764319",
"o 	c #744219",
"p 	c #74411C",
"q 	c #713F1C",
"r 	c #6E3B1B",
"s 	c #6E3A1A",
"t 	c #6E3A1C",
"u 	c #6E3A1D",
"v 	c #6C3A20",
"w 	c #6D3C24",
"x 	c #6C3E27",
"y 	c #6A3C27",
"z 	c #714A35",
"A 	c #6F452F",
"B 	c #6F422A",
"C 	c #724329",
"D 	c #76462B",
"E 	c #77482C",
"F 	c #724223",
"G 	c #71401E",
"H 	c #73441D",
"I 	c #75471E",
"J 	c #784C22",
"K 	c #7B5127",
"L 	c #7B5226",
"M 	c #7A5123",
"N 	c #7B5120",
"O 	c #7C511F",
"P 	c #7E5320",
"Q 	c #7F521E",
"R 	c #7D501A",
"S 	c #7B4C18",
"T 	c #794917",
"U 	c #78471A",
"V 	c #76451B",
"W 	c #72421B",
"X 	c #713F1B",
"Y 	c #723F1E",
"Z 	c #724022",
"` 	c #724125",
" .	c #734127",
"..	c #703E24",
"+.	c #6E3D24",
"@.	c #6B3C26",
"#.	c #764D36",
"$.	c #754B33",
"%.	c #73472E",
"&.	c #734429",
"*.	c #754528",
"=.	c #78492A",
"-.	c #754726",
";.	c #724620",
">.	c #744A21",
",.	c #764D21",
"'.	c #785325",
").	c #7C5828",
"!.	c #7D5A26",
"~.	c #7C5923",
"{.	c #7D5920",
"].	c #7E5B1E",
"^.	c #805E1F",
"/.	c #815F1D",
"(.	c #805C1A",
"_.	c #7D5616",
":.	c #7B5116",
"<.	c #7B4F1A",
"[.	c #774B1A",
"}.	c #75481E",
"|.	c #754822",
"1.	c #764623",
"2.	c #764525",
"3.	c #774729",
"4.	c #764529",
"5.	c #723F23",
"6.	c #6D3D25",
"7.	c #794E36",
"8.	c #794C33",
"9.	c #77482D",
"0.	c #744629",
"a.	c #754728",
"b.	c #784A28",
"c.	c #784D28",
"d.	c #744C22",
"e.	c #744F22",
"f.	c #765423",
"g.	c #775823",
"h.	c #7A5C24",
"i.	c #7D6024",
"j.	c #816326",
"k.	c #806322",
"l.	c #80651E",
"m.	c #836A1E",
"n.	c #836C1C",
"o.	c #836A1C",
"p.	c #7F6417",
"q.	c #7C5C17",
"r.	c #7B5617",
"s.	c #775016",
"t.	c #785122",
"u.	c #7A532C",
"v.	c #7A502C",
"w.	c #7B4D2B",
"x.	c #7B4B2B",
"y.	c #794829",
"z.	c #754325",
"A.	c #734126",
"B.	c #6D3C22",
"C.	c #794B32",
"D.	c #7B4C31",
"E.	c #7B4C2E",
"F.	c #784A2B",
"G.	c #754927",
"H.	c #764B25",
"I.	c #774F24",
"J.	c #775324",
"K.	c #745522",
"L.	c #755A24",
"M.	c #765D1F",
"N.	c #78601D",
"O.	c #7E6520",
"P.	c #836A26",
"Q.	c #836B24",
"R.	c #847021",
"S.	c #877520",
"T.	c #887627",
"U.	c #867525",
"V.	c #816E18",
"W.	c #7F6718",
"X.	c #7B5D17",
"Y.	c #795817",
"Z.	c #7B5822",
"`.	c #7B5729",
" +	c #7C552B",
".+	c #7C5028",
"++	c #7B4D28",
"@+	c #7A4926",
"#+	c #774424",
"$+	c #6E3D22",
"%+	c #77462A",
"&+	c #794626",
"*+	c #7B4926",
"=+	c #7A4C27",
"-+	c #784E27",
";+	c #765027",
">+	c #775526",
",+	c #765823",
"'+	c #745A20",
")+	c #735D1E",
"!+	c #73601A",
"~+	c #786418",
"{+	c #7F6A1D",
"]+	c #856F22",
"^+	c #857122",
"/+	c #877720",
"(+	c #897C26",
"_+	c #8A7C31",
":+	c #897A2F",
"<+	c #84761E",
"[+	c #806E16",
"}+	c #7C6416",
"|+	c #7B6018",
"1+	c #7A5D1D",
"2+	c #7A5A20",
"3+	c #7C5926",
"4+	c #7D5629",
"5+	c #7C5129",
"6+	c #7B4D29",
"7+	c #774726",
"8+	c #764426",
"9+	c #744225",
"0+	c #77472A",
"a+	c #784625",
"b+	c #794823",
"c+	c #7B4E25",
"d+	c #7A5228",
"e+	c #765425",
"f+	c #745824",
"g+	c #745B1F",
"h+	c #745E1A",
"i+	c #736118",
"j+	c #76651A",
"k+	c #7A6A17",
"l+	c #82701B",
"m+	c #86741E",
"n+	c #88761F",
"o+	c #8A7B20",
"p+	c #8D8125",
"q+	c #8C802E",
"r+	c #897D2C",
"s+	c #87791C",
"t+	c #817115",
"u+	c #7D6914",
"v+	c #7D6617",
"w+	c #7C631C",
"x+	c #7B611F",
"y+	c #7D5F24",
"z+	c #7F5C2B",
"A+	c #7C552A",
"B+	c #7A502B",
"C+	c #7C5030",
"D+	c #7A4A2B",
"E+	c #774527",
"F+	c #784A2E",
"G+	c #784929",
"H+	c #774922",
"I+	c #784E21",
"J+	c #795421",
"K+	c #735A21",
"L+	c #725E1B",
"M+	c #736115",
"N+	c #766616",
"O+	c #776917",
"P+	c #7C6F19",
"Q+	c #85771E",
"R+	c #887920",
"S+	c #897A1D",
"T+	c #8B7E1E",
"U+	c #8D811F",
"V+	c #8C8120",
"W+	c #8A7F1C",
"X+	c #867A16",
"Y+	c #817212",
"Z+	c #806D11",
"`+	c #7F6B15",
" @	c #7F6A1B",
".@	c #7D661D",
"+@	c #7B621E",
"@@	c #7B5C21",
"#@	c #7A5725",
"$@	c #7B4F2B",
"%@	c #794928",
"&@	c #784726",
"*@	c #77492C",
"=@	c #774A29",
"-@	c #754A21",
";@	c #754E1E",
">@	c #77561F",
",@	c #785D22",
"'@	c #745E1E",
")@	c #72601A",
"!@	c #746516",
"~@	c #776A15",
"{@	c #7A6D18",
"]@	c #7F731A",
"^@	c #867B20",
"/@	c #897D22",
"(@	c #8A7D22",
"_@	c #8A7E25",
":@	c #8A7F24",
"<@	c #897F21",
"[@	c #887E1D",
"}@	c #857A17",
"|@	c #847613",
"1@	c #857312",
"2@	c #847217",
"3@	c #816F1A",
"4@	c #7D6B18",
"5@	c #796419",
"6@	c #79601E",
"7@	c #7C5B21",
"8@	c #7A5525",
"9@	c #794F26",
"0@	c #7A4C26",
"a@	c #794623",
"b@	c #774B2D",
"c@	c #764B27",
"d@	c #744C21",
"e@	c #73511D",
"f@	c #74581E",
"g@	c #776022",
"h@	c #76631D",
"i@	c #746518",
"j@	c #746716",
"k@	c #7A6E15",
"l@	c #7E7418",
"m@	c #80771E",
"n@	c #867D26",
"o@	c #897F2B",
"p@	c #897F2E",
"q@	c #867D2F",
"r@	c #867D2E",
"s@	c #877D2C",
"t@	c #857C27",
"u@	c #867B21",
"v@	c #887C1C",
"w@	c #8A7C19",
"x@	c #89791A",
"y@	c #83731B",
"z@	c #7E6E19",
"A@	c #7D6A1C",
"B@	c #7B641D",
"C@	c #7A5E21",
"D@	c #7B5A25",
"E@	c #7A5223",
"F@	c #76481E",
"G@	c #73421D",
"H@	c #764928",
"I@	c #734D1E",
"J@	c #72521A",
"K@	c #725817",
"L@	c #735E18",
"M@	c #746419",
"N@	c #776B15",
"O@	c #786E16",
"P@	c #7C731C",
"Q@	c #7F7724",
"R@	c #827C2E",
"S@	c #878035",
"T@	c #857D38",
"U@	c #817938",
"V@	c #807838",
"W@	c #837B37",
"X@	c #837B33",
"Y@	c #8C822B",
"Z@	c #8C8121",
"`@	c #877C1B",
" #	c #86781F",
".#	c #81721B",
"+#	c #7E6E1D",
"@#	c #7D6821",
"##	c #7A621F",
"$#	c #76581D",
"%#	c #734F1C",
"&#	c #744B1F",
"*#	c #764822",
"=#	c #734621",
"-#	c #73491D",
";#	c #734F1B",
">#	c #715418",
",#	c #705916",
"'#	c #726016",
")#	c #746616",
"!#	c #7A7016",
"~#	c #7A721B",
"{#	c #787222",
"]#	c #7A742B",
"^#	c #7F7A36",
"/#	c #817C3D",
"(#	c #7F7940",
"_#	c #7B753F",
":#	c #7A733E",
"<#	c #7B743D",
"[#	c #80783D",
"}#	c #87803C",
"|#	c #898234",
"1#	c #877F2A",
"2#	c #887F21",
"3#	c #877C1D",
"4#	c #827419",
"5#	c #7D6E17",
"6#	c #776618",
"7#	c #75601B",
"8#	c #745A1D",
"9#	c #74521C",
"0#	c #764E21",
"a#	c #774B25",
"b#	c #734721",
"c#	c #724B1D",
"d#	c #72511C",
"e#	c #705618",
"f#	c #715D16",
"g#	c #726214",
"h#	c #746714",
"i#	c #786D17",
"j#	c #7B7119",
"k#	c #7C7421",
"l#	c #78722A",
"m#	c #797433",
"n#	c #767139",
"o#	c #736E3C",
"p#	c #757040",
"q#	c #746F41",
"r#	c #736E40",
"s#	c #777242",
"t#	c #807A45",
"u#	c #827C41",
"v#	c #837D3B",
"w#	c #878133",
"x#	c #878026",
"y#	c #857C1B",
"z#	c #7F7319",
"A#	c #7A6C1A",
"B#	c #786818",
"C#	c #766218",
"D#	c #745C1A",
"E#	c #73541A",
"F#	c #754F20",
"G#	c #784F29",
"H#	c #754A24",
"I#	c #71531D",
"J#	c #70581A",
"K#	c #6F5D17",
"L#	c #716216",
"M#	c #756816",
"N#	c #796F17",
"O#	c #79711B",
"P#	c #797324",
"Q#	c #78722F",
"R#	c #716C35",
"S#	c #6F6A39",
"T#	c #6C683C",
"U#	c #6A663D",
"V#	c #68643D",
"W#	c #68643E",
"X#	c #726D42",
"Y#	c #787345",
"Z#	c #7B7644",
"`#	c #857F42",
" $	c #837F39",
".$	c #807A2C",
"+$	c #827A21",
"@$	c #81771C",
"#$	c #7C701D",
"$$	c #77691D",
"%$	c #756319",
"&$	c #765E1B",
"*$	c #75571A",
"=$	c #77521F",
"-$	c #7B5129",
";$	c #764C24",
">$	c #755123",
",$	c #72551F",
"'$	c #715A1C",
")$	c #756916",
"!$	c #776D17",
"~$	c #766F1D",
"{$	c #787228",
"]$	c #746F32",
"^$	c #6B6635",
"/$	c #615D34",
"($	c #5C5834",
"_$	c #65613C",
":$	c #6B6640",
"<$	c #6A6540",
"[$	c #6E6A44",
"}$	c #757145",
"|$	c #767143",
"1$	c #7B7642",
"2$	c #827C3E",
"3$	c #7F7A32",
"4$	c #817A27",
"5$	c #837A20",
"6$	c #82761E",
"7$	c #7D6F1C",
"8$	c #79671A",
"9$	c #78621D",
"0$	c #785B1E",
"a$	c #78541F",
"b$	c #7A5024",
"c$	c #774D24",
"d$	c #775325",
"e$	c #755822",
"f$	c #735E21",
"g$	c #74631F",
"h$	c #76671B",
"i$	c #776B17",
"j$	c #786E18",
"k$	c #79711F",
"l$	c #76712A",
"m$	c #6E6A32",
"n$	c #635E33",
"o$	c #5A5632",
"p$	c #5E5B39",
"q$	c #7F7A50",
"r$	c #9A9464",
"s$	c #858053",
"t$	c #6E6B43",
"u$	c #69653E",
"v$	c #706C41",
"w$	c #7F7A46",
"x$	c #857F43",
"y$	c #868038",
"z$	c #867F2A",
"A$	c #847C20",
"B$	c #83771E",
"C$	c #79691C",
"D$	c #785D21",
"E$	c #785522",
"F$	c #784E22",
"G$	c #784E26",
"H$	c #775326",
"I$	c #755923",
"J$	c #755F24",
"K$	c #756420",
"L$	c #77681B",
"M$	c #786C17",
"N$	c #7A7118",
"O$	c #7A7320",
"P$	c #78722B",
"Q$	c #726D35",
"R$	c #676236",
"S$	c #615D36",
"T$	c #777347",
"U$	c #979362",
"V$	c #A5A06A",
"W$	c #838055",
"X$	c #67643E",
"Y$	c #68653E",
"Z$	c #736F43",
"`$	c #7E7846",
" %	c #837E43",
".%	c #87813A",
"+%	c #88812C",
"@%	c #877D22",
"#%	c #847820",
"$%	c #7F711F",
"%%	c #7C6B1F",
"&%	c #7A641F",
"*%	c #7A5823",
"=%	c #7B5126",
"-%	c #754A22",
";%	c #755926",
">%	c #766027",
",%	c #766423",
"'%	c #75671E",
")%	c #776B1B",
"!%	c #796F1B",
"~%	c #7C7420",
"{%	c #7E792C",
"]%	c #7B7538",
"^%	c #6B6637",
"/%	c #666239",
"(%	c #6F6B42",
"_%	c #888453",
":%	c #8A8655",
"<%	c #6F6C43",
"[%	c #625F3A",
"}%	c #64603A",
"|%	c #746F43",
"1%	c #7D7844",
"2%	c #837E41",
"3%	c #878239",
"4%	c #8A822D",
"5%	c #8A8027",
"6%	c #877B24",
"7%	c #81721F",
"8%	c #7E6C22",
"9%	c #7B6520",
"0%	c #7A5E20",
"a%	c #7A5621",
"b%	c #7C5228",
"c%	c #765021",
"d%	c #785924",
"e%	c #796125",
"f%	c #7A6720",
"g%	c #7B6B1E",
"h%	c #7B6E1B",
"i%	c #7D721B",
"j%	c #7C731D",
"k%	c #7D7728",
"l%	c #7B7634",
"m%	c #6E6836",
"n%	c #5F5B33",
"o%	c #5D5934",
"p%	c #6F6A42",
"q%	c #6C6841",
"r%	c #5B5835",
"s%	c #5F5B37",
"t%	c #6C673E",
"u%	c #777243",
"v%	c #797440",
"w%	c #7E793B",
"x%	c #857E35",
"y%	c #887E26",
"z%	c #84781E",
"A%	c #80711C",
"B%	c #7C6B1C",
"C%	c #7B631C",
"D%	c #795B1C",
"E%	c #79551F",
"F%	c #7C5026",
"G%	c #784A21",
"H%	c #764E1C",
"I%	c #76561D",
"J%	c #775D20",
"K%	c #77631F",
"L%	c #78681E",
"M%	c #796C1B",
"N%	c #7E731E",
"O%	c #7F761D",
"P%	c #7C7523",
"Q%	c #78732D",
"R%	c #706B33",
"S%	c #676234",
"T%	c #6D693D",
"U%	c #736F42",
"V%	c #6B673E",
"W%	c #68643C",
"X%	c #757042",
"Y%	c #7A7542",
"Z%	c #7E783F",
"`%	c #847E39",
" &	c #837D2F",
".&	c #847C29",
"+&	c #847925",
"@&	c #7F731F",
"#&	c #7C6D1F",
"$&	c #7A671C",
"%&	c #775F1A",
"&&	c #77591C",
"*&	c #78521E",
"=&	c #794E22",
"-&	c #75461D",
";&	c #754B1B",
">&	c #74521A",
",&	c #755A1E",
"'&	c #77611E",
")&	c #776619",
"!&	c #7A6B1A",
"~&	c #7D7119",
"{&	c #7C7218",
"]&	c #7A731D",
"^&	c #787327",
"/&	c #746F2F",
"(&	c #706B34",
"_&	c #6D6838",
":&	c #706C3D",
"<&	c #716C3E",
"[&	c #6E693D",
"}&	c #777241",
"|&	c #7C7742",
"1&	c #7F7A3F",
"2&	c #837D3A",
"3&	c #827C33",
"4&	c #857E2C",
"5&	c #857C25",
"6&	c #80751F",
"7&	c #7E7022",
"8&	c #7B6B24",
"9&	c #77641F",
"0&	c #765C1C",
"a&	c #76561E",
"b&	c #764F20",
"c&	c #774B22",
"d&	c #75461F",
"e&	c #764A1C",
"f&	c #76501A",
"g&	c #76581C",
"h&	c #78601E",
"i&	c #766715",
"j&	c #776A18",
"k&	c #7A6F18",
"l&	c #7A7119",
"m&	c #797428",
"n&	c #787430",
"o&	c #757035",
"p&	c #817B42",
"q&	c #7E7842",
"r&	c #77723B",
"s&	c #7D783B",
"t&	c #827C39",
"u&	c #857F34",
"v&	c #87802C",
"w&	c #847B27",
"x&	c #827723",
"y&	c #7D6E1E",
"z&	c #7B6922",
"A&	c #786321",
"B&	c #775522",
"C&	c #764E22",
"D&	c #764921",
"E&	c #74431B",
"F&	c #75481D",
"G&	c #77501F",
"H&	c #795820",
"I&	c #755B1A",
"J&	c #745F18",
"K&	c #746418",
"L&	c #76681A",
"M&	c #786C1A",
"N&	c #7A6F19",
"O&	c #7A721A",
"P&	c #7A731F",
"Q&	c #817B28",
"R&	c #7F7A2E",
"S&	c #7B7631",
"T&	c #88833C",
"U&	c #89833F",
"V&	c #7E7836",
"W&	c #7F7932",
"X&	c #847D2A",
"Y&	c #857C23",
"Z&	c #857A1F",
"`&	c #817520",
" *	c #7D6F22",
".*	c #7B6A21",
"+*	c #7A6622",
"@*	c #7A6120",
"#*	c #795B22",
"$*	c #795525",
"%*	c #795026",
"&*	c #784A25",
"**	c #774520",
"=*	c #784A22",
"-*	c #774D1F",
";*	c #74511E",
">*	c #73561B",
",*	c #745D1D",
"'*	c #75611C",
")*	c #75661C",
"!*	c #75681A",
"~*	c #7A6F14",
"{*	c #7B7216",
"]*	c #7F771F",
"^*	c #7C7622",
"/*	c #7E7826",
"(*	c #8A832F",
"_*	c #898232",
":*	c #7E7929",
"<*	c #7D7625",
"[*	c #827A22",
"}*	c #857C1E",
"|*	c #82761B",
"1*	c #807318",
"2*	c #7F7119",
"3*	c #7C6C1E",
"4*	c #796723",
"5*	c #786225",
"6*	c #775C21",
"7*	c #785621",
"8*	c #795123",
"9*	c #7A4E27",
"0*	c #7A4C2B",
"a*	c #764422",
"b*	c #754520",
"c*	c #744820",
"d*	c #754F23",
"e*	c #755521",
"f*	c #74591F",
"g*	c #73611D",
"h*	c #74651A",
"i*	c #766A15",
"j*	c #7B6F14",
"k*	c #7E731A",
"l*	c #796F19",
"m*	c #7E751C",
"n*	c #887F23",
"o*	c #867C23",
"p*	c #7E751D",
"q*	c #7D741A",
"r*	c #7D7317",
"s*	c #817615",
"t*	c #817418",
"u*	c #7D6E18",
"v*	c #7B6A19",
"w*	c #7A681B",
"x*	c #7B6522",
"y*	c #7A6026",
"z*	c #775925",
"A*	c #794D29",
"B*	c #7B4C2D",
"C*	c #724121",
"D*	c #744321",
"E*	c #764723",
"F*	c #784D25",
"G*	c #765123",
"H*	c #74541F",
"I*	c #71571B",
"J*	c #715B19",
"K*	c #725F17",
"L*	c #746417",
"M*	c #766718",
"N*	c #7C6E1A",
"O*	c #7D7019",
"P*	c #776B16",
"Q*	c #7B7018",
"R*	c #85791F",
"S*	c #83781E",
"T*	c #81751A",
"U*	c #7D7216",
"V*	c #796D12",
"W*	c #796C13",
"X*	c #7C6E14",
"Y*	c #7D6B1A",
"Z*	c #7A671F",
"`*	c #78631E",
" =	c #7A6023",
".=	c #7C5E29",
"+=	c #7D5C2F",
"@=	c #7B552E",
"#=	c #794F2C",
"$=	c #794C2C",
"%=	c #784B2E",
"&=	c #734326",
"*=	c #774425",
"==	c #794624",
"-=	c #784921",
";=	c #774C21",
">=	c #754F1F",
",=	c #73541E",
"'=	c #715719",
")=	c #715A16",
"!=	c #75641A",
"~=	c #796A1A",
"{=	c #786B17",
"]=	c #80711E",
"^=	c #82741D",
"/=	c #81731C",
"(=	c #7A6C15",
"_=	c #776813",
":=	c #766614",
"<=	c #786615",
"[=	c #7B671B",
"}=	c #7C6524",
"|=	c #795F21",
"1=	c #775A22",
"2=	c #7A5828",
"3=	c #7C562D",
"4=	c #7D5430",
"5=	c #7B5030",
"6=	c #784B2C",
"7=	c #77492D",
"8=	c #764429",
"9=	c #7A4627",
"0=	c #7B4A23",
"a=	c #7A4A21",
"b=	c #784D20",
"c=	c #73531C",
"d=	c #735719",
"e=	c #735B19",
"f=	c #755F1B",
"g=	c #7A6521",
"h=	c #746219",
"i=	c #726216",
"j=	c #766618",
"k=	c #7F6F21",
"l=	c #7F6D20",
"m=	c #776617",
"n=	c #776416",
"o=	c #746116",
"p=	c #79601B",
"q=	c #7C6022",
"r=	c #7B5C24",
"s=	c #795727",
"t=	c #795329",
"u=	c #7C532F",
"v=	c #7E5231",
"w=	c #7D4F30",
"x=	c #7A4B2E",
"y=	c #77452B",
"z=	c #7B4C28",
"A=	c #7E5326",
"B=	c #7F5424",
"C=	c #7E4E23",
"D=	c #7C4B23",
"E=	c #774B21",
"F=	c #744D1B",
"G=	c #74511A",
"H=	c #785C1E",
"I=	c #796021",
"J=	c #725C1D",
"K=	c #715D1B",
"L=	c #75621D",
"M=	c #7B6724",
"N=	c #7E6A26",
"O=	c #7E6928",
"P=	c #77621F",
"Q=	c #77601B",
"R=	c #745B18",
"S=	c #755A1C",
"T=	c #7A581F",
"U=	c #7C5724",
"V=	c #7B5428",
"W=	c #7A512B",
"X=	c #7B4F2E",
"Y=	c #7C4F30",
"Z=	c #7C4E31",
"`=	c #7C4E34",
" -	c #7B4F36",
".-	c #7B5128",
"+-	c #80592C",
"@-	c #815A2A",
"#-	c #7F5322",
"$-	c #7B4721",
"%-	c #77461E",
"&-	c #76491E",
"*-	c #744B1B",
"=-	c #764F1D",
"--	c #7B5823",
";-	c #735822",
">-	c #715820",
",-	c #765C22",
"'-	c #7B6228",
")-	c #7C6429",
"!-	c #7F652C",
"~-	c #7B6028",
"{-	c #765A1F",
"]-	c #74561B",
"^-	c #74541C",
"/-	c #75511C",
"(-	c #77501E",
"_-	c #7B5124",
":-	c #7E532D",
"<-	c #7E5331",
"[-	c #7D5033",
"}-	c #7B4F34",
"|-	c #7A4E34",
"1-	c #7A4F36",
"2-	c #7A5039",
"3-	c #75462D",
"4-	c #7A4F26",
"5-	c #7E5728",
"6-	c #805929",
"7-	c #7E5224",
"8-	c #7A4520",
"9-	c #78441F",
"0-	c #764620",
"a-	c #784D21",
"b-	c #7C5326",
"c-	c #765022",
"d-	c #735223",
"e-	c #765726",
"f-	c #7B5B2A",
"g-	c #7C5C2A",
"h-	c #80602F",
"i-	c #7D5C2D",
"j-	c #775422",
"k-	c #76511F",
"l-	c #754D22",
"m-	c #774B23",
"n-	c #7D4E2C",
"o-	c #7E5233",
"p-	c #7D5034",
"q-	c #7B4F35",
"r-	c #794F37",
"s-	c #774D37",
"t-	c #754B35",
". + @ # $ % & * = - ; > , ' ) ! ! ~ { ] ^ / ( _ : < [ } | 1 2 3 ",
"4 5 6 7 8 9 0 a b c d e f g h i j k l m n o p q r s t u v w x y ",
"z A B C D E F G H I J K L M N O P Q R S T U V W X Y Z `  ...+.@.",
"#.$.%.&.*.=.-.;.>.,.'.).!.~.{.].^./.(._.:.<.[.}.|.1.2.3.4.5...6.",
"7.8.9.0.a.b.c.d.e.f.g.h.i.j.k.l.m.n.o.p.q.r.s.t.u.v.w.x.y.z.A.B.",
"C.D.E.F.G.H.I.J.K.L.M.N.O.P.Q.R.S.T.U.V.W.X.Y.Z.`. +.+++@+#+Z $+",
"%+&+*+=+-+;+>+,+'+)+!+~+{+]+^+/+(+_+:+<+[+}+|+1+2+3+4+5+6+7+8+9+",
"0+a+b+c+d+e+f+g+h+i+j+k+l+m+n+o+p+q+r+s+t+u+v+w+x+y+z+A+B+C+D+E+",
"F+G+H+I+J+,+K+L+M+N+O+P+Q+R+S+T+U+V+W+X+Y+Z+`+ @.@+@@@#@ +$@%@&@",
"*@=@-@;@>@,@'@)@!@~@{@]@^@/@(@_@:@<@[@}@|@1@2@3@4@5@6@7@8@9@0@a@",
"b@c@d@e@f@g@h@i@j@k@l@m@n@o@p@q@r@s@t@u@v@w@x@y@z@A@B@C@D@E@F@G@",
"H@>.I@J@K@L@M@O+N@O@P@Q@R@S@T@U@V@W@X@q@Y@Z@`@ #.#+#@###$#%#&#*#",
"=#-#;#>#,#'#)#~@!#~#{#]#^#/#(#_#:#<#[#}#|#1#2#3#4#5#6#7#8#9#0#a#",
"b#c#d#e#f#g#h#i#j#k#l#m#n#o#p#q#r#s#t#u#v#w#x#y#z#A#B#C#D#E#F#G#",
"H#I@I#J#K#L#M#N#O#P#Q#R#S#T#U#V#W#X#Y#Z#`# $.$+$@$#$$$%$&$*$=$-$",
";$>$,$'$!+i@)$!$~${$]$^$/$($_$:$<$[$}$|$1$2$3$4$5$6$7$8$9$0$a$b$",
"c$d$e$f$g$h$i$j$k$l$m$n$o$p$q$r$s$t$u$v$w$x$y$z$A$B$7$C$9$D$E$F$",
"G$H$I$J$K$L$M$N$O$P$Q$R$S$T$U$V$W$X$Y$Z$`$ %.%+%@%#%$%%%&%C@*%=%",
"-%>$;%>%,%'%)%!%~%{%]%^%/%(%_%:%<%[%}%|%1%2%3%4%5%6%7%8%9%0%a%b%",
"-%c%d%e%f%g%h%i%j%k%l%m%n%o%p%q%r%s%t%u%v%w%x%+%y%z%A%B%C%D%E%F%",
"G%H%I%J%K%L%M%N%O%P%Q%R%S%T%U%V%W%U#X%Y%Z%`% &.&+&@&#&$&%&&&*&=&",
"-&;&>&,&'&)&!&~&{&]&^&/&(&_&:&<&[&}&|&1&2&3&4&5&6&7&8&9&0&a&b&c&",
"d&e&f&g&h&~+i&j&k&l&O$m&n&o&n#p&q&r&s&t&u&v&w&x&@&y&z&A&,@B&C&D&",
"E&F&G&H&I&J&K&L&M&N&O&P&Q&R&S&T&U&V&W& &X&Y&Z&`& *.*+*@*#*$*%*&*",
"**=*-*;*>*,*'*)*!*i$~*{*]*^*/*(*_*:*<*[*}*|*1*2*3*4*5*6*7*8*9*0*",
"a*b*c*d*e*f*)+g*h*j@i*j*k*l*m*n*o*p*q*r*s*t*u*v*w*x*y*z*J.G$A*B*",
"C*D*E*F*G*H*I*J*K*L*M*N*O*P*Q*R*S*T*U*V*W*X*Y*Z*`* =.=+=@=#=$=%=",
"&=*===-=;=>=,='=)=J&!=%%~=)#{=]=^=/=(=_=:=<=[=}=|=1=2=3=4=5=6=7=",
"8=9=*+0=a=b=c%c=d=e=f=g=h=i=j=%%k=l=m=n=o=J&p=q=r=s=t=u=v=w=x=7=",
"y=z=A=B=C=D=E=F=G=E#H=I=J=K=L=M=N=O=P=Q=R=S=g&T=U=V=W=X=Y=Z=`= -",
"D .-+-@-#-$-%-&-*-=---d%;->-,-'-)-!-~-{-]-^-/-(-_-:-<-[-}-|-1-2-",
"3-4-5-6-7-8-9-0-I a-b-c-d-d-e-f-g-h-i-j-k-F#l-m-0@n-o-p-q-r-s-t-"};
